<svg version="1.1" id="Layer_1" xmlns="http://www.w3.org/2000/svg" xmlns:xlink="http://www.w3.org/1999/xlink" x="0px" y="0px"
	 width="100%" viewBox="0 0 1774 887" enable-background="new 0 0 1774 887" xml:space="preserve">
<path fill="#FEFEFE" opacity="1.000000" stroke="none" 
	d="
M1087.000000,888.000000 
	C724.666687,888.000000 362.833344,888.000000 1.000000,888.000000 
	C1.000000,592.333313 1.000000,296.666656 1.000000,1.000000 
	C592.333313,1.000000 1183.666626,1.000000 1775.000000,1.000000 
	C1775.000000,296.666656 1775.000000,592.333313 1775.000000,888.000000 
	C1545.833374,888.000000 1316.666626,888.000000 1087.000000,888.000000 
M854.829346,337.843201 
	C861.865295,337.767365 868.901245,337.691559 876.859802,337.824432 
	C887.170471,337.650513 897.481140,337.476593 908.426758,337.519104 
	C909.706848,337.466949 910.987000,337.414825 913.035828,337.470245 
	C914.316711,337.434998 915.597656,337.399750 917.675110,337.614502 
	C943.816406,337.698456 969.958069,337.842834 996.098328,337.714233 
	C997.646179,337.706635 999.837891,335.834900 1000.625000,334.273560 
	C1009.313599,317.037964 1017.732422,299.666718 1026.334106,282.386871 
	C1030.462646,274.093109 1034.824707,265.915558 1039.275146,257.310211 
	C1032.184326,256.384338 1026.403687,257.947540 1021.142151,261.488037 
	C1014.893494,265.692902 1012.241211,271.751862 1012.974731,279.510468 
	C1005.600342,275.114410 1000.218140,275.134552 996.592346,279.220856 
	C993.196472,283.048096 993.471130,287.405792 996.669006,291.224304 
	C999.937134,290.653442 1003.839172,288.874786 1005.053284,289.998993 
	C1007.259766,292.042114 1009.222290,295.986176 1008.855103,298.821991 
	C1008.144409,304.310211 1006.227661,309.795532 1003.944885,314.894409 
	C999.400208,325.045410 988.721436,328.762299 979.430664,323.962128 
	C969.843750,319.008942 966.076355,305.722717 970.644043,296.414215 
	C974.566223,288.421143 978.113647,280.023163 980.229492,271.411774 
	C984.376648,254.533340 977.084595,236.681625 963.473694,227.454636 
	C949.553223,218.017853 930.348206,218.239044 915.349609,228.201508 
	C910.467773,232.858505 905.606934,237.537857 900.687805,242.155136 
	C899.598267,243.177780 898.302979,243.981247 897.005249,244.106262 
	C895.707825,238.076874 894.410400,232.047485 893.453979,225.434372 
	C894.750122,223.841919 895.828613,221.984299 897.384033,220.707901 
	C901.648560,217.208496 901.957886,214.993958 898.793945,210.638535 
	C898.009155,209.558273 897.565857,207.698654 897.893860,206.439056 
	C898.952515,202.374588 901.108765,199.101639 905.825806,198.596664 
	C911.164673,198.025131 913.567749,201.179611 914.425171,205.927505 
	C922.287415,202.443008 925.530945,195.844742 922.883545,189.413193 
	C920.428223,183.448227 912.821838,180.493408 905.909363,183.004974 
	C899.370911,185.380692 895.992065,190.691986 894.218384,196.979523 
	C893.159790,200.732346 892.978088,204.732513 892.414856,208.535828 
	C889.687256,208.718140 887.044189,208.894791 884.586487,208.262009 
	C883.175964,202.858459 882.387695,197.187363 880.206726,192.115097 
	C877.061890,184.801437 870.350464,181.328232 863.436035,182.194305 
	C857.609009,182.924179 853.244629,187.460052 852.992126,193.048447 
	C852.710327,199.286057 856.516113,204.340927 862.506348,205.540482 
	C863.037292,201.486191 865.022156,198.725403 869.411499,198.505081 
	C873.983521,198.275620 876.920105,200.667465 878.625854,204.712601 
	C879.202087,206.079208 879.511353,207.558395 879.435608,209.426300 
	C874.135620,214.442596 874.238831,217.026917 879.871155,221.265747 
	C881.039062,222.144714 882.138062,223.115173 883.176575,224.924713 
	C881.809998,232.016891 880.443420,239.109055 878.465088,245.850037 
	C877.534363,244.479218 876.822021,242.870529 875.634033,241.780014 
	C871.203308,237.713074 866.616516,233.816086 861.892761,229.209854 
	C850.310486,218.999100 830.272156,217.513916 816.151794,225.942245 
	C812.141235,229.649139 808.130676,233.356033 803.584778,237.475281 
	C796.902100,247.236603 793.404541,258.065857 796.296692,269.628357 
	C798.650269,279.037659 802.388367,288.200073 806.414551,297.062164 
	C810.077087,305.123871 808.505371,312.142731 803.706604,318.536346 
	C798.926697,324.904785 791.950745,327.711487 784.222351,325.061798 
	C780.439758,323.764954 776.307739,320.955353 774.257568,317.640594 
	C769.300232,309.625244 764.542114,301.085114 769.661560,290.729767 
	C773.503418,287.447449 776.204895,290.070404 778.806458,292.670654 
	C782.748047,288.253571 783.266113,283.386261 780.300964,279.730591 
	C777.152954,275.849426 772.412842,275.230164 766.252991,278.178253 
	C763.857666,279.786499 764.093872,278.085480 763.916565,276.461243 
	C762.536438,263.816376 751.040771,255.405014 737.882324,257.419159 
	C737.917358,257.895508 737.810120,258.446533 738.008362,258.846008 
	C750.714722,284.458496 763.417908,310.072723 776.266174,335.613953 
	C776.842957,336.760437 778.755371,337.918182 780.046509,337.919250 
	C798.015015,337.933838 815.983643,337.747192 834.875488,337.818512 
	C841.216431,337.754364 847.557373,337.690216 854.829346,337.843201 
M264.062805,489.063538 
	C260.006622,489.314270 255.950455,489.564972 251.043015,489.656616 
	C249.029175,489.763214 247.015320,489.869843 244.069321,489.864166 
	C194.659256,491.202576 145.249191,492.541016 95.839119,493.879425 
	C115.623138,495.515015 135.392761,496.172882 155.165985,496.694733 
	C182.766861,497.423187 210.370422,498.050018 238.880814,498.903290 
	C261.509491,499.673126 284.138153,500.442963 306.511108,501.204071 
	C306.511108,496.299683 306.511108,492.279999 306.511108,487.688568 
	C292.768311,488.188385 278.868134,488.693909 264.062805,489.063538 
M957.068909,346.882233 
	C944.707825,346.940735 932.346802,346.999237 919.058167,346.925262 
	C895.703491,346.977142 872.348755,347.029053 848.068726,346.923798 
	C824.521240,346.923798 800.973816,346.923798 777.438477,346.923798 
	C777.438477,353.144409 777.438477,358.717102 777.438477,364.454590 
	C798.836304,364.454590 819.914429,364.454590 841.897705,364.702698 
	C866.574402,364.625854 891.251038,364.549011 916.844482,364.729736 
	C930.879517,364.638184 944.914490,364.546600 959.853882,364.727142 
	C973.073486,364.727142 986.293152,364.727142 999.774170,364.727142 
	C999.774170,359.488129 999.609131,355.000183 999.831787,350.531555 
	C999.982361,347.509613 998.993347,346.351898 995.911865,346.419037 
	C983.276733,346.694458 970.638245,346.815430 957.068909,346.882233 
M924.014221,374.077667 
	C884.722656,374.051178 845.431091,374.055817 806.139709,373.944733 
	C802.625977,373.934814 800.861267,374.915009 800.862915,378.685242 
	C800.864502,382.385681 803.108154,382.503632 805.834167,382.498474 
	C845.287231,382.423706 884.740417,382.383423 925.032349,382.493530 
	C940.183472,382.572784 955.334900,382.617859 970.485413,382.760468 
	C973.462769,382.788513 975.423828,381.887604 975.382629,378.624786 
	C975.346313,375.751373 974.203430,373.955322 970.883789,373.982025 
	C955.569397,374.105347 940.254211,374.119446 924.014221,374.077667 
M870.105164,549.748535 
	C869.405090,557.883850 868.416931,558.978943 860.422363,560.404175 
	C858.946594,560.667297 857.341736,560.595093 856.015930,561.177368 
	C855.078857,561.588989 854.512207,562.843872 853.450928,564.117310 
	C854.953430,564.446228 855.435364,564.642944 855.917847,564.644104 
	C872.574402,564.684204 889.230957,564.705933 905.887573,564.730530 
	C906.220825,564.731079 906.629150,564.861328 906.873230,564.715210 
	C907.612671,564.272583 908.288391,563.723572 908.988892,563.215942 
	C908.315369,562.475159 907.754700,561.545715 906.932373,561.053650 
	C906.283020,560.664978 905.311523,560.816528 904.483521,560.724060 
	C893.706421,559.520691 892.149475,558.062256 891.966125,547.454468 
	C891.744263,534.627747 891.852844,521.795227 891.821411,508.965210 
	C891.814636,506.198517 891.820496,503.431854 891.820496,500.811707 
	C902.991760,500.811707 913.494568,500.468384 923.961914,500.929413 
	C931.242188,501.250092 933.472046,503.792358 934.979248,510.878784 
	C935.325623,512.507507 935.342896,514.266663 936.003235,515.746460 
	C936.425110,516.691895 937.749817,517.234558 939.566467,518.662781 
	C939.566467,509.124573 939.560486,500.989136 939.568848,492.853699 
	C939.573608,488.188324 939.687622,483.520111 939.535461,478.860260 
	C939.509766,478.072662 938.381958,477.321075 937.763306,476.552826 
	C937.132812,477.172241 936.203979,477.685120 935.936523,478.434174 
	C935.438782,479.827606 935.339600,481.361206 935.051208,482.831879 
	C934.186035,487.243591 932.161865,491.268280 927.336792,491.431122 
	C915.611572,491.826843 903.864014,491.559875 892.260254,491.559875 
	C892.260254,474.209595 892.260254,456.963318 892.260254,440.042267 
	C905.661560,440.042267 918.648560,439.617401 931.590942,440.193573 
	C940.037537,440.569611 943.962830,444.775391 946.011169,453.036469 
	C946.331543,454.328491 946.266602,455.817841 946.912109,456.897827 
	C947.511230,457.900177 948.822083,458.477112 950.526245,459.782928 
	C950.526245,449.329834 950.526245,440.260651 950.526245,431.158264 
	C918.263306,431.158264 886.327759,431.158264 854.442871,431.158264 
	C853.080688,435.614105 856.390869,434.773590 858.368225,435.037720 
	C867.810425,436.299194 869.010559,437.438110 870.085083,446.600372 
	C870.141479,447.080963 870.391785,447.538788 870.368408,448.926544 
	C870.374756,482.281464 870.381165,515.636414 870.105164,549.748535 
M708.879333,548.752747 
	C708.237305,558.214355 707.216797,559.303345 697.705261,560.676392 
	C697.540466,560.700195 697.351440,560.677185 697.213989,560.750916 
	C695.694824,561.566467 694.183533,562.396851 692.670166,563.223206 
	C694.374207,563.724976 696.075562,564.644653 697.782837,564.655701 
	C704.938354,564.702271 712.095276,564.415649 719.252502,564.366028 
	C728.370300,564.302795 737.488770,564.350647 746.609192,564.350647 
	C746.362732,561.221985 746.362732,561.221985 742.568054,560.791931 
	C732.350159,559.633789 731.242004,558.911133 730.538940,548.753418 
	C729.930969,539.968994 730.227173,531.120483 730.167358,522.299988 
	C730.126099,516.219788 730.159424,510.139069 730.159424,503.707245 
	C733.852112,503.707245 736.866028,504.011383 739.792786,503.636047 
	C744.193970,503.071686 746.583252,504.893250 748.897217,508.591766 
	C758.772400,524.375977 769.012817,539.931824 779.128784,555.565308 
	C782.700134,561.084412 787.691711,564.537415 794.317688,564.754639 
	C802.800659,565.032654 811.299683,564.909729 819.789185,564.783752 
	C820.739319,564.769653 821.672485,563.613464 822.613464,562.986877 
	C821.841919,562.308350 821.126221,561.120483 820.290283,561.028870 
	C810.221802,559.925293 803.825317,553.518494 798.452820,545.842834 
	C790.345642,534.260254 782.457764,522.523987 774.509766,510.830536 
	C772.014526,507.159424 769.625916,503.415894 767.608276,500.344543 
	C773.682495,496.742432 779.860718,494.009796 784.929565,489.906738 
	C803.819275,474.615906 799.901001,445.886169 777.645203,436.294159 
	C772.073120,433.892639 765.906860,432.225616 759.880493,431.672577 
	C750.800171,430.839264 741.602905,431.253387 732.454956,431.191681 
	C720.468750,431.110840 708.481750,431.027496 696.496338,431.114349 
	C695.236084,431.123474 693.984192,432.270325 692.728455,432.889343 
	C693.820557,433.584381 694.840759,434.469452 696.026184,434.917725 
	C697.082458,435.317169 698.330750,435.178192 699.478333,435.371826 
	C706.113708,436.491516 707.594177,438.009766 708.582458,444.585480 
	C708.754395,445.729462 708.992065,446.863556 709.019287,448.923981 
	C709.069580,481.964569 709.119873,515.005188 708.879333,548.752747 
M394.678192,399.128326 
	C392.875916,399.128326 391.073669,399.128326 389.280396,399.128326 
	C389.218567,403.319031 389.218567,403.319000 394.691681,403.967285 
	C405.327118,405.226990 407.940887,407.663177 408.086792,418.058929 
	C408.416229,441.535339 408.531616,465.015991 408.553040,488.495117 
	C408.570953,508.140472 408.478882,527.788574 408.136505,547.430298 
	C407.993988,555.608582 405.602173,557.920654 397.595764,559.365723 
	C395.631683,559.720215 393.506897,559.580322 391.703339,560.293274 
	C390.432434,560.795776 389.579590,562.355652 388.540100,563.443420 
	C388.935883,563.743530 389.331696,564.043640 389.727478,564.343750 
	C411.468140,564.343750 433.208832,564.343750 454.949493,564.343750 
	C455.230164,563.926514 455.510803,563.509216 455.791473,563.091980 
	C454.659180,562.134155 453.667297,560.726807 452.363037,560.319275 
	C450.168884,559.633667 447.766296,559.642334 445.468933,559.254700 
	C437.405029,557.894043 435.064850,555.702271 434.614807,547.548035 
	C434.119812,538.579285 434.184235,529.576599 434.118652,520.587952 
	C434.046021,510.632050 434.102081,500.675232 434.102081,490.230957 
	C437.003571,490.720367 439.424042,491.166504 441.856476,491.532959 
	C461.319580,494.465363 479.889557,492.198303 496.124176,480.346497 
	C511.388245,469.203247 517.249023,453.627075 513.938599,435.121124 
	C511.016357,418.784729 500.390930,408.418091 484.961151,403.966980 
	C475.017059,401.098389 464.420959,399.636292 454.055542,399.265686 
	C434.605988,398.570221 415.111786,399.123138 394.678192,399.128326 
M1353.456421,473.500488 
	C1353.456421,452.214813 1353.456421,430.929138 1353.456421,409.244873 
	C1358.498657,409.244873 1362.799683,409.158478 1367.095825,409.265076 
	C1373.586182,409.426147 1380.094849,409.465637 1386.556641,410.016449 
	C1398.068970,410.997772 1403.243774,415.612183 1405.953491,426.759705 
	C1406.424805,428.698090 1406.390381,430.814514 1407.153931,432.608459 
	C1407.722534,433.944031 1409.202271,434.891724 1410.276123,436.012146 
	C1410.564941,435.649628 1410.853638,435.287109 1411.142334,434.924561 
	C1411.142334,423.007202 1411.142334,411.089844 1411.142334,399.187683 
	C1363.749634,399.187683 1316.831543,399.187683 1269.429443,399.187683 
	C1269.429443,411.353180 1269.429443,423.261841 1269.429443,435.223907 
	C1273.793701,436.810699 1273.438232,433.277618 1273.852539,430.912140 
	C1275.413208,422.000275 1278.011108,412.955536 1288.117188,411.406586 
	C1300.973389,409.436096 1314.127441,409.409363 1327.194702,408.541870 
	C1327.514771,410.490051 1327.709473,411.123901 1327.710327,411.757996 
	C1327.771851,455.247742 1327.997559,498.738495 1327.762207,542.226746 
	C1327.685303,556.437683 1325.469360,558.208191 1311.245605,559.920227 
	C1310.749390,559.979919 1310.083740,559.843872 1309.784790,560.115601 
	C1308.662231,561.136353 1307.658813,562.288513 1305.775757,564.270386 
	C1330.014038,564.270386 1352.244141,564.270386 1374.474365,564.270386 
	C1374.756958,563.863403 1375.039551,563.456482 1375.322021,563.049500 
	C1374.307495,562.102783 1373.442505,560.725220 1372.243774,560.309204 
	C1370.393799,559.667175 1368.309937,559.717651 1366.334473,559.414246 
	C1356.396851,557.887939 1354.110352,555.865845 1353.948364,545.967773 
	C1353.558716,522.149048 1353.595093,498.323364 1353.456421,473.500488 
M652.691528,555.376648 
	C653.538513,548.680847 654.385437,541.985107 655.232422,535.289307 
	C654.680176,535.017029 654.127930,534.744751 653.575684,534.472473 
	C652.477844,536.047424 650.923157,537.474060 650.355713,539.221252 
	C646.510681,551.061096 638.660950,556.868958 626.059814,556.482239 
	C615.907471,556.170593 605.739075,556.217041 595.580627,556.339172 
	C590.650818,556.398376 588.577942,554.027710 588.492615,549.415710 
	C588.307861,539.422241 588.112488,529.428650 587.997314,519.434204 
	C587.923035,512.990417 587.983398,506.545044 587.983398,499.655609 
	C597.547241,499.655609 606.520630,499.546234 615.490356,499.681244 
	C628.870605,499.882599 630.931702,502.880829 632.314331,513.281677 
	C632.466248,514.424927 634.194824,515.358582 635.192200,516.389404 
	C636.316833,503.255951 636.356140,491.093292 636.240356,478.932098 
	C636.231384,477.985443 635.136475,477.049103 634.546326,476.107971 
	C633.852966,476.853546 632.966736,477.500519 632.520935,478.372681 
	C632.084534,479.226562 632.125732,480.316254 631.907471,481.291290 
	C630.222717,488.818176 628.751465,490.406586 620.971619,491.170258 
	C615.355469,491.721558 609.669434,491.606537 604.013062,491.687622 
	C598.773254,491.762726 593.531433,491.703644 588.522095,491.703644 
	C588.522095,473.850128 588.522095,456.793457 588.522095,439.475708 
	C600.377319,439.475708 611.690063,439.142609 622.973877,439.570221 
	C634.067200,439.990570 640.617676,441.568146 643.093933,456.328064 
	C643.278503,457.428040 644.739990,458.313721 645.607849,459.299042 
	C645.994629,458.997406 646.381409,458.695801 646.768188,458.394196 
	C646.768188,449.311340 646.768188,440.228516 646.768188,431.086853 
	C614.564575,431.086853 582.622559,431.086853 550.680603,431.086853 
	C550.408203,431.612427 550.135864,432.138000 549.863525,432.663574 
	C551.166687,433.464813 552.395447,434.785858 553.784851,434.984802 
	C564.641541,436.539215 566.406189,438.057404 566.461304,448.899017 
	C566.626526,481.397949 566.649658,513.898621 566.495361,546.397583 
	C566.439209,558.214539 565.551575,558.829224 554.060547,560.791443 
	C552.680847,561.027039 551.449097,562.129333 550.148743,562.829895 
	C551.591187,563.445923 553.031311,564.593140 554.476501,564.599670 
	C584.970459,564.736755 615.464966,564.745361 645.959412,564.778687 
	C647.717834,564.780640 649.476318,564.778931 651.401428,564.778931 
	C651.831482,561.485901 652.173950,558.863281 652.691528,555.376648 
M1068.374878,504.476807 
	C1069.104492,506.851593 1069.843750,509.223450 1070.560547,511.602081 
	C1071.170044,513.624451 1070.191406,517.227966 1074.647095,515.569458 
	C1074.647095,502.430542 1074.647095,489.349701 1074.647095,476.268890 
	C1074.144653,476.032898 1073.642334,475.796936 1073.139893,475.560944 
	C1072.334351,476.971375 1071.184082,478.291656 1070.787231,479.808990 
	C1069.551270,484.534088 1068.813110,490.334839 1062.904541,490.647430 
	C1051.052856,491.274353 1039.144531,490.833679 1027.188232,490.833679 
	C1027.188232,473.923065 1027.188232,456.821716 1027.188232,439.358276 
	C1037.462891,439.358276 1047.437988,439.310669 1057.412231,439.386078 
	C1060.570557,439.409973 1063.748413,439.592438 1066.879150,439.997498 
	C1074.687500,441.007782 1078.405396,444.358643 1080.402100,451.936035 
	C1080.868286,453.705048 1080.963013,455.623688 1081.719849,457.243958 
	C1082.138184,458.139221 1083.575684,458.558289 1085.256958,459.647705 
	C1085.256958,449.386017 1085.256958,440.315582 1085.256958,431.132019 
	C1053.053345,431.132019 1021.126587,431.132019 989.291809,431.132019 
	C987.860168,435.365540 990.847961,434.842072 993.040283,435.113831 
	C1003.479553,436.407837 1005.072876,437.798798 1005.123718,448.248505 
	C1005.282471,480.905731 1005.314575,513.564819 1005.132874,546.221741 
	C1005.066162,558.210266 1004.042175,558.989197 992.300354,560.818787 
	C991.642273,560.921387 990.792053,560.766235 990.361816,561.126160 
	C989.725403,561.658630 989.131042,562.510620 989.023743,563.295532 
	C988.968140,563.702576 989.936462,564.554199 990.550781,564.681641 
	C991.669678,564.913757 992.869446,564.760193 994.035461,564.760254 
	C1022.189636,564.761414 1050.343750,564.761658 1078.497925,564.762024 
	C1082.251953,564.762085 1086.005981,564.762024 1089.861206,564.762024 
	C1091.218018,554.521179 1092.478149,545.010376 1093.728638,535.572205 
	C1089.830200,533.755066 1089.662109,536.664001 1088.928467,538.737610 
	C1084.293823,551.836853 1079.424805,555.909363 1066.091553,556.393677 
	C1055.613281,556.774170 1045.102783,556.515686 1034.613525,556.257996 
	C1028.539062,556.108765 1027.365967,554.919312 1027.229248,548.686707 
	C1026.955444,536.196167 1026.989136,523.698792 1026.909302,511.204071 
	C1026.885254,507.433533 1026.905640,503.662720 1026.905640,499.681519 
	C1037.264648,499.681519 1046.943359,499.297119 1056.564941,499.870667 
	C1060.413818,500.100128 1064.136841,502.440460 1068.374878,504.476807 
M1152.196899,485.162598 
	C1153.198853,480.617706 1153.910889,475.985229 1155.252319,471.542816 
	C1161.629395,450.424255 1176.168579,438.344177 1197.168945,436.459747 
	C1220.600220,434.357178 1232.353027,442.192719 1239.084595,464.219757 
	C1239.427246,465.340637 1241.010010,466.082489 1242.015381,467.000824 
	C1242.549561,466.677979 1243.083740,466.355133 1243.617920,466.032288 
	C1243.617920,456.390228 1243.752197,446.743958 1243.452393,437.111237 
	C1243.413818,435.872589 1241.268433,433.884125 1239.852295,433.632782 
	C1228.559692,431.628204 1217.263184,429.034668 1205.864014,428.350067 
	C1161.187378,425.666992 1131.075806,454.381622 1127.388550,491.861115 
	C1124.813843,518.032349 1134.714966,547.289062 1164.244751,560.440186 
	C1189.497192,571.686401 1215.249512,569.389404 1240.854370,561.227356 
	C1242.084106,560.835266 1243.461792,559.127991 1243.737305,557.816040 
	C1245.300903,550.371887 1246.549561,542.861511 1247.905396,535.373718 
	C1247.477783,535.040833 1247.050171,534.708008 1246.622437,534.375183 
	C1245.501587,535.588867 1243.895386,536.614258 1243.339233,538.047119 
	C1239.927979,546.836914 1233.810791,552.886536 1225.042236,556.001648 
	C1203.567505,563.630920 1172.619141,558.662537 1159.113525,529.865356 
	C1152.540527,515.850342 1150.765381,501.255127 1152.196899,485.162598 
M1546.534790,489.983673 
	C1520.941284,489.244019 1495.347900,488.504333 1470.304321,487.780548 
	C1470.304321,492.522858 1470.304321,496.664398 1470.304321,501.134064 
	C1542.713623,498.998718 1615.253418,496.859528 1687.793213,494.720306 
	C1687.795166,494.503479 1687.797119,494.286652 1687.799194,494.069824 
	C1641.041138,492.711395 1594.283203,491.352966 1546.534790,489.983673 
M551.096802,645.575256 
	C551.096802,642.541260 551.096802,639.507263 551.096802,636.270752 
	C488.711151,637.970825 426.292725,639.671814 363.874329,641.372803 
	C375.112457,642.488342 386.377960,642.599426 397.636993,642.929749 
	C446.932648,644.376465 496.226074,645.900452 545.522461,647.321899 
	C547.431030,647.377014 549.361572,646.669373 551.096802,645.575256 
M1254.543213,647.523743 
	C1266.013916,647.044922 1277.481201,646.442261 1288.956055,646.109314 
	C1331.048218,644.888245 1373.143311,643.771973 1415.235718,642.562927 
	C1418.545654,642.467896 1421.843750,641.961914 1425.147339,641.646973 
	C1425.129150,641.534912 1425.110962,641.422852 1425.092896,641.310852 
	C1366.836304,639.604797 1308.579712,637.898804 1250.636230,636.201965 
	C1250.636230,640.192627 1250.636230,643.583496 1250.636230,647.271851 
	C1251.470093,647.348755 1252.579468,647.451050 1254.543213,647.523743 
M1151.676880,646.497620 
	C1151.676880,640.984802 1151.676880,635.471924 1151.676880,629.959106 
	C1161.918335,640.916321 1170.970825,651.988464 1179.869995,663.182556 
	C1181.835449,665.654968 1183.703491,667.159485 1186.884888,665.456543 
	C1186.884888,652.855408 1186.966919,640.365540 1186.838867,627.877930 
	C1186.795898,623.685608 1186.760132,619.824646 1192.162476,618.706787 
	C1187.011353,618.706787 1181.860107,618.706787 1177.369751,618.706787 
	C1178.991821,620.383789 1181.975342,622.020325 1182.069946,623.809692 
	C1182.554321,632.965454 1182.293945,642.160645 1182.293945,652.546387 
	C1180.179688,650.150513 1178.862915,648.739868 1177.636230,647.254883 
	C1170.638306,638.783020 1163.689941,630.270020 1156.665527,621.820251 
	C1153.416382,617.911865 1146.822632,616.858948 1140.993896,619.819214 
	C1146.786011,619.611572 1147.337524,622.767334 1147.265991,626.722534 
	C1147.112305,635.214111 1147.340820,643.713135 1147.157349,652.203613 
	C1147.049316,657.204407 1149.260254,663.295898 1140.540894,665.397461 
	C1146.999878,665.397461 1152.018066,665.397461 1157.036255,665.397461 
	C1151.440674,664.731995 1151.719604,660.834106 1151.781738,656.986938 
	C1151.832764,653.824036 1151.721191,650.658508 1151.676880,646.497620 
M685.416992,649.033875 
	C690.056702,663.116943 701.567749,669.418335 716.816223,666.222534 
	C727.381104,664.008240 735.124268,654.476807 735.818970,642.830872 
	C736.472107,631.882324 730.247925,622.455200 719.950684,618.914917 
	C701.817261,612.680481 681.164551,624.664246 685.416992,649.033875 
M1103.376831,652.800781 
	C1107.294067,642.743713 1106.995239,633.153442 1099.382080,624.890137 
	C1092.093872,616.979675 1078.627930,615.040405 1068.416382,619.952209 
	C1058.765503,624.594360 1053.458252,634.873291 1054.954224,646.025452 
	C1056.467529,657.308228 1063.388550,664.431702 1074.900391,666.555115 
	C1086.941895,668.776245 1097.468872,663.888489 1103.376831,652.800781 
M886.125977,149.660202 
	C883.587769,153.755295 880.951294,157.793304 878.532288,161.957657 
	C873.822205,170.066391 872.836609,177.792023 879.208740,185.993134 
	C882.455261,190.171463 883.867737,195.793152 885.997925,200.809677 
	C886.661438,202.372055 886.960327,204.089249 887.426086,205.735565 
	C887.911255,205.772797 888.396423,205.810013 888.881531,205.847229 
	C889.508362,204.160660 890.056702,202.439713 890.776611,200.793869 
	C893.020630,195.663910 894.722900,190.165039 897.751465,185.540192 
	C902.652832,178.055527 903.488892,171.374954 898.964966,163.722229 
	C895.425171,157.734283 891.803040,151.794937 888.159729,145.737961 
	C887.651245,146.721924 887.053284,147.879013 886.125977,149.660202 
M885.358521,622.435059 
	C886.943054,621.284851 888.527649,620.134644 890.278320,618.863892 
	C885.151367,618.863892 880.211243,618.863892 876.343811,618.863892 
	C877.634583,620.579285 880.067200,622.325073 880.153687,624.180298 
	C880.564453,632.988892 880.725586,641.849487 880.227112,650.649109 
	C879.709351,659.789307 874.944702,663.753784 866.374817,663.331421 
	C858.843140,662.960266 855.107666,658.686035 854.932251,649.870239 
	C854.783142,642.374390 854.933655,634.872986 854.840881,627.375427 
	C854.794067,623.589355 854.286743,619.687622 859.531921,618.656616 
	C853.632202,618.656616 847.732483,618.656616 840.759949,618.656616 
	C846.801514,621.144531 846.801758,621.144531 846.795532,626.974426 
	C846.787231,634.806213 846.279419,642.682739 846.975891,650.451294 
	C847.335815,654.465759 848.809753,659.366943 851.567627,661.984741 
	C858.375122,668.446594 867.042725,668.394348 875.448242,665.211060 
	C883.090515,662.316895 885.143921,655.759277 885.135010,648.232605 
	C885.125122,639.901978 885.161011,631.571411 885.358521,622.435059 
M617.842224,636.446716 
	C620.279114,638.645569 622.513062,641.144714 625.205872,642.964966 
	C628.355103,645.093506 631.959534,646.535095 635.264587,648.450439 
	C638.500183,650.325439 639.672058,653.271790 639.082031,656.955505 
	C638.508667,660.535583 636.294739,662.366272 632.899048,663.273010 
	C626.236694,665.052063 620.536865,662.229797 618.148438,655.836914 
	C617.871277,655.095276 617.331360,654.451904 616.189941,652.571045 
	C616.189941,657.588013 616.189941,661.154602 616.189941,665.762085 
	C622.180908,666.015015 628.169983,666.976318 633.982971,666.336853 
	C641.511475,665.508667 646.148682,660.594055 646.971436,654.463135 
	C647.795227,648.324829 644.825500,643.580811 637.876770,639.901245 
	C634.353699,638.035645 630.403015,636.648926 627.483154,634.090027 
	C625.581970,632.423889 624.321106,629.006775 624.412231,626.432129 
	C624.477173,624.595703 626.929565,622.053284 628.903992,621.223694 
	C634.746460,618.768616 639.962585,621.561646 642.163147,627.587585 
	C642.375793,628.169861 643.019958,628.594421 644.001343,629.695007 
	C644.375061,625.636475 644.670654,622.426453 645.002380,618.824646 
	C640.960754,618.251526 637.361633,617.410583 633.738159,617.287231 
	C621.105225,616.857422 614.104614,624.937744 617.842224,636.446716 
M937.783936,663.911072 
	C936.851746,664.220947 935.919617,664.530884 934.987427,664.840759 
	C935.052429,665.029541 935.117493,665.218262 935.182556,665.406982 
	C941.678162,665.406982 948.173767,665.406982 953.683838,665.406982 
	C952.150940,663.642883 949.224365,661.843262 949.161987,659.949402 
	C948.748230,647.367615 948.947632,634.765686 948.947632,621.744629 
	C955.479187,622.200439 962.998962,619.307922 965.414429,629.076599 
	C965.414429,625.598206 965.414429,622.119812 965.414429,618.460815 
	C951.601440,618.460815 937.908020,618.460815 924.060791,618.460815 
	C924.060791,622.263184 924.060791,625.783936 924.060791,629.896423 
	C929.432495,621.403381 931.865723,620.397217 940.766113,622.610657 
	C940.766113,634.560425 940.854797,646.536011 940.666931,658.507324 
	C940.639893,660.235657 939.283569,661.943237 937.783936,663.911072 
M782.482971,618.357117 
	C779.195679,618.357117 775.908386,618.357117 772.621094,618.357117 
	C772.323730,618.890747 772.026367,619.424377 771.728943,619.958069 
	C778.298706,619.128723 778.087952,623.064636 778.073547,626.934326 
	C778.037659,636.575989 777.941284,646.219421 778.088867,655.858826 
	C778.154663,660.156128 778.390015,664.243652 772.785095,665.582947 
	C784.415588,665.582947 796.046021,665.582947 808.017639,665.582947 
	C808.363464,662.080933 808.711853,658.553345 809.060181,655.025818 
	C808.527222,654.537170 807.994202,654.048584 807.461182,653.559937 
	C806.191711,664.191833 798.940369,662.264282 792.510193,662.720276 
	C787.230774,663.094666 785.941040,660.871887 786.054749,656.140930 
	C786.270325,647.169373 786.092468,638.188843 786.116333,629.212097 
	C786.127991,624.807739 784.863953,619.680847 791.643188,618.372742 
	C788.907349,618.372742 786.171570,618.372742 782.482971,618.357117 
M1447.376465,484.072601 
	C1445.448853,481.444641 1443.521118,478.816711 1441.542480,476.119171 
	C1436.080200,482.532715 1430.943359,488.564117 1425.810547,494.590912 
	C1430.950562,500.503662 1436.144775,506.478668 1441.450562,512.582031 
	C1446.622192,506.522888 1451.659302,500.621338 1456.772461,494.630615 
	C1453.777222,491.275391 1450.805542,487.946533 1447.376465,484.072601 
M320.188263,493.897186 
	C320.146240,494.362732 319.882202,495.024384 320.094788,495.265015 
	C325.133545,500.968628 330.223602,506.626953 335.491394,512.502197 
	C340.688171,506.477051 345.844910,500.498383 350.885406,494.654449 
	C345.662781,488.628937 340.499634,482.672089 335.061920,476.398407 
	C332.614288,479.589417 330.511475,482.566528 328.159271,485.331512 
	C325.791290,488.114960 323.175415,490.687469 320.188263,493.897186 
M1014.110413,618.315063 
	C1009.408142,618.315063 1004.705872,618.315063 1000.003601,618.315063 
	C1005.017456,619.869019 1005.137085,623.422058 1005.068542,627.435120 
	C1004.912292,636.577942 1005.058838,645.725586 1005.034241,654.871216 
	C1005.022766,659.136230 1006.192627,664.027405 999.990967,665.506287 
	C1006.185181,665.506287 1012.379456,665.506287 1019.587891,665.506287 
	C1013.070984,662.648254 1013.046448,662.648315 1013.028625,655.964233 
	C1013.003357,646.486084 1013.133606,637.005737 1012.964294,627.530518 
	C1012.887817,623.250305 1013.142334,619.560120 1018.613586,618.565308 
	C1017.405945,618.462891 1016.198364,618.360474 1014.110413,618.315063 
M563.991577,647.531128 
	C566.412048,650.434448 568.832520,653.337708 571.394653,656.411011 
	C575.693054,651.335388 579.723938,646.575623 583.644226,641.946411 
	C579.565796,637.105530 575.632751,632.437317 571.465454,627.490967 
	C567.185486,632.496643 563.057922,637.324036 558.520203,642.631226 
	C560.273193,644.159668 561.897827,645.576233 563.991577,647.531128 
M1242.537720,642.948547 
	C1242.466309,642.221130 1242.668335,641.265320 1242.281006,640.801880 
	C1238.589355,636.384216 1234.797729,632.049927 1230.905273,627.541626 
	C1226.921021,632.338074 1222.946167,637.123108 1218.898682,641.995728 
	C1222.950562,646.722961 1226.992798,651.439026 1231.070312,656.196106 
	C1234.909668,651.726257 1238.465942,647.585815 1242.537720,642.948547 
z"/>
<path fill="#091A36" opacity="1.000000" stroke="none" 
	d="
M395.157166,399.142578 
	C415.111786,399.123138 434.605988,398.570221 454.055542,399.265686 
	C464.420959,399.636292 475.017059,401.098389 484.961151,403.966980 
	C500.390930,408.418091 511.016357,418.784729 513.938599,435.121124 
	C517.249023,453.627075 511.388245,469.203247 496.124176,480.346497 
	C479.889557,492.198303 461.319580,494.465363 441.856476,491.532959 
	C439.424042,491.166504 437.003571,490.720367 434.102081,490.230957 
	C434.102081,500.675232 434.046021,510.632050 434.118652,520.587952 
	C434.184235,529.576599 434.119812,538.579285 434.614807,547.548035 
	C435.064850,555.702271 437.405029,557.894043 445.468933,559.254700 
	C447.766296,559.642334 450.168884,559.633667 452.363037,560.319275 
	C453.667297,560.726807 454.659180,562.134155 455.791473,563.091980 
	C455.510803,563.509216 455.230164,563.926514 454.949493,564.343750 
	C433.208832,564.343750 411.468140,564.343750 389.727478,564.343750 
	C389.331696,564.043640 388.935883,563.743530 388.540100,563.443420 
	C389.579590,562.355652 390.432434,560.795776 391.703339,560.293274 
	C393.506897,559.580322 395.631683,559.720215 397.595764,559.365723 
	C405.602173,557.920654 407.993988,555.608582 408.136505,547.430298 
	C408.478882,527.788574 408.570953,508.140472 408.553040,488.495117 
	C408.531616,465.015991 408.416229,441.535339 408.086792,418.058929 
	C407.940887,407.663177 405.327118,405.226990 394.691681,403.967285 
	C389.218567,403.319000 389.218567,403.319031 389.280396,399.128326 
	C391.073669,399.128326 392.875916,399.128326 395.157166,399.142578 
M434.076813,420.545227 
	C434.076813,441.138153 434.076813,461.731110 434.076813,482.119965 
	C452.567108,488.372864 470.492737,484.410278 479.801636,472.341888 
	C489.132141,460.245605 489.547760,438.037781 480.703278,424.165405 
	C472.172302,410.784698 454.228729,405.124969 434.133636,409.874664 
	C434.133636,412.985168 434.133636,416.275940 434.076813,420.545227 
z"/>
<path fill="#0A1C38" opacity="1.000000" stroke="none" 
	d="
M709.199341,448.002197 
	C708.992065,446.863556 708.754395,445.729462 708.582458,444.585480 
	C707.594177,438.009766 706.113708,436.491516 699.478333,435.371826 
	C698.330750,435.178192 697.082458,435.317169 696.026184,434.917725 
	C694.840759,434.469452 693.820557,433.584381 692.728455,432.889343 
	C693.984192,432.270325 695.236084,431.123474 696.496338,431.114349 
	C708.481750,431.027496 720.468750,431.110840 732.454956,431.191681 
	C741.602905,431.253387 750.800171,430.839264 759.880493,431.672577 
	C765.906860,432.225616 772.073120,433.892639 777.645203,436.294159 
	C799.901001,445.886169 803.819275,474.615906 784.929565,489.906738 
	C779.860718,494.009796 773.682495,496.742432 767.608276,500.344543 
	C769.625916,503.415894 772.014526,507.159424 774.509766,510.830536 
	C782.457764,522.523987 790.345642,534.260254 798.452820,545.842834 
	C803.825317,553.518494 810.221802,559.925293 820.290283,561.028870 
	C821.126221,561.120483 821.841919,562.308350 822.613464,562.986938 
	C821.672485,563.613464 820.739319,564.769653 819.789185,564.783752 
	C811.299683,564.909729 802.800659,565.032654 794.317688,564.754639 
	C787.691711,564.537415 782.700134,561.084412 779.128784,555.565308 
	C769.012817,539.931824 758.772400,524.375977 748.897217,508.591766 
	C746.583252,504.893250 744.193970,503.071686 739.792786,503.636047 
	C736.866028,504.011383 733.852112,503.707245 730.159424,503.707245 
	C730.159424,510.139069 730.126099,516.219788 730.167358,522.299988 
	C730.227173,531.120483 729.930969,539.968994 730.538940,548.753418 
	C731.242004,558.911133 732.350159,559.633789 742.568054,560.791931 
	C746.362732,561.221985 746.362732,561.221985 746.609192,564.350647 
	C737.488770,564.350647 728.370300,564.302795 719.252502,564.366028 
	C712.095276,564.415649 704.938354,564.702271 697.782837,564.655701 
	C696.075562,564.644653 694.374207,563.724976 692.670166,563.223206 
	C694.183533,562.396851 695.694824,561.566467 697.213989,560.750916 
	C697.351440,560.677185 697.540466,560.700195 697.705261,560.676392 
	C707.216797,559.303345 708.237305,558.214355 709.405273,548.277649 
	C710.287598,546.774414 710.953796,545.746826 710.955627,544.718079 
	C711.011047,513.654114 711.020691,482.589996 710.925171,451.526245 
	C710.921570,450.349792 709.799988,449.176788 709.199341,448.002197 
M768.417175,485.799500 
	C775.737244,474.049408 775.968018,461.871002 768.304626,450.628723 
	C759.198059,437.269257 745.131714,437.635986 730.585266,439.290619 
	C730.585266,458.444763 730.585266,477.296295 730.585266,496.586670 
	C744.466980,497.392761 757.988281,498.575043 768.417175,485.799500 
z"/>
<path fill="#0A1B37" opacity="1.000000" stroke="none" 
	d="
M1353.458008,474.000488 
	C1353.595093,498.323364 1353.558716,522.149048 1353.948364,545.967773 
	C1354.110352,555.865845 1356.396851,557.887939 1366.334473,559.414246 
	C1368.309937,559.717651 1370.393799,559.667175 1372.243774,560.309204 
	C1373.442505,560.725220 1374.307495,562.102783 1375.322021,563.049500 
	C1375.039551,563.456482 1374.756958,563.863403 1374.474365,564.270386 
	C1352.244141,564.270386 1330.014038,564.270386 1305.775757,564.270386 
	C1307.658813,562.288513 1308.662231,561.136353 1309.784790,560.115601 
	C1310.083740,559.843872 1310.749390,559.979919 1311.245605,559.920227 
	C1325.469360,558.208191 1327.685303,556.437683 1327.762207,542.226746 
	C1327.997559,498.738495 1327.771851,455.247742 1327.710327,411.757996 
	C1327.709473,411.123901 1327.514771,410.490051 1327.194702,408.541870 
	C1314.127441,409.409363 1300.973389,409.436096 1288.117188,411.406586 
	C1278.011108,412.955536 1275.413208,422.000275 1273.852539,430.912140 
	C1273.438232,433.277618 1273.793701,436.810699 1269.429443,435.223907 
	C1269.429443,423.261841 1269.429443,411.353180 1269.429443,399.187683 
	C1316.831543,399.187683 1363.749634,399.187683 1411.142334,399.187683 
	C1411.142334,411.089844 1411.142334,423.007202 1411.142334,434.924561 
	C1410.853638,435.287109 1410.564941,435.649628 1410.276123,436.012146 
	C1409.202271,434.891724 1407.722534,433.944031 1407.153931,432.608459 
	C1406.390381,430.814514 1406.424805,428.698090 1405.953491,426.759705 
	C1403.243774,415.612183 1398.068970,410.997772 1386.556641,410.016449 
	C1380.094849,409.465637 1373.586182,409.426147 1367.095825,409.265076 
	C1362.799683,409.158478 1358.498657,409.244873 1353.456421,409.244873 
	C1353.456421,430.929138 1353.456421,452.214813 1353.458008,474.000488 
z"/>
<path fill="#0A1C38" opacity="1.000000" stroke="none" 
	d="
M652.604004,555.808594 
	C652.173950,558.863281 651.831482,561.485901 651.401428,564.778931 
	C649.476318,564.778931 647.717834,564.780640 645.959412,564.778687 
	C615.464966,564.745361 584.970459,564.736755 554.476501,564.599670 
	C553.031311,564.593140 551.591187,563.445923 550.148743,562.829895 
	C551.449097,562.129333 552.680847,561.027039 554.060547,560.791443 
	C565.551575,558.829224 566.439209,558.214539 566.495361,546.397583 
	C566.649658,513.898621 566.626526,481.397949 566.461304,448.899017 
	C566.406189,438.057404 564.641541,436.539215 553.784851,434.984802 
	C552.395447,434.785858 551.166687,433.464813 549.863525,432.663574 
	C550.135864,432.138000 550.408203,431.612427 550.680603,431.086853 
	C582.622559,431.086853 614.564575,431.086853 646.768188,431.086853 
	C646.768188,440.228516 646.768188,449.311340 646.768188,458.394196 
	C646.381409,458.695801 645.994629,458.997406 645.607849,459.299042 
	C644.739990,458.313721 643.278503,457.428040 643.093933,456.328064 
	C640.617676,441.568146 634.067200,439.990570 622.973877,439.570221 
	C611.690063,439.142609 600.377319,439.475708 588.522095,439.475708 
	C588.522095,456.793457 588.522095,473.850128 588.522095,491.703644 
	C593.531433,491.703644 598.773254,491.762726 604.013062,491.687622 
	C609.669434,491.606537 615.355469,491.721558 620.971619,491.170258 
	C628.751465,490.406586 630.222717,488.818176 631.907471,481.291290 
	C632.125732,480.316254 632.084534,479.226562 632.520935,478.372681 
	C632.966736,477.500519 633.852966,476.853546 634.546326,476.107971 
	C635.136475,477.049103 636.231384,477.985443 636.240356,478.932098 
	C636.356140,491.093292 636.316833,503.255951 635.192200,516.389404 
	C634.194824,515.358582 632.466248,514.424927 632.314331,513.281677 
	C630.931702,502.880829 628.870605,499.882599 615.490356,499.681244 
	C606.520630,499.546234 597.547241,499.655609 587.983398,499.655609 
	C587.983398,506.545044 587.923035,512.990417 587.997314,519.434204 
	C588.112488,529.428650 588.307861,539.422241 588.492615,549.415710 
	C588.577942,554.027710 590.650818,556.398376 595.580627,556.339172 
	C605.739075,556.217041 615.907471,556.170593 626.059814,556.482239 
	C638.660950,556.868958 646.510681,551.061096 650.355713,539.221252 
	C650.923157,537.474060 652.477844,536.047424 653.575684,534.472473 
	C654.127930,534.744751 654.680176,535.017029 655.232422,535.289307 
	C654.385437,541.985107 653.538513,548.680847 652.604004,555.808594 
z"/>
<path fill="#0E1E39" opacity="1.000000" stroke="none" 
	d="
M1068.145996,504.148376 
	C1064.136841,502.440460 1060.413818,500.100128 1056.564941,499.870667 
	C1046.943359,499.297119 1037.264648,499.681519 1026.905640,499.681519 
	C1026.905640,503.662720 1026.885254,507.433533 1026.909302,511.204071 
	C1026.989136,523.698792 1026.955444,536.196167 1027.229248,548.686707 
	C1027.365967,554.919312 1028.539062,556.108765 1034.613525,556.257996 
	C1045.102783,556.515686 1055.613281,556.774170 1066.091553,556.393677 
	C1079.424805,555.909363 1084.293823,551.836853 1088.928467,538.737610 
	C1089.662109,536.664001 1089.830200,533.755066 1093.728638,535.572205 
	C1092.478149,545.010376 1091.218018,554.521179 1089.861206,564.762024 
	C1086.005981,564.762024 1082.251953,564.762085 1078.497925,564.762024 
	C1050.343750,564.761658 1022.189636,564.761414 994.035461,564.760254 
	C992.869446,564.760193 991.669678,564.913757 990.550781,564.681641 
	C989.936462,564.554199 988.968140,563.702576 989.023743,563.295532 
	C989.131042,562.510620 989.725403,561.658630 990.361816,561.126160 
	C990.792053,560.766235 991.642273,560.921387 992.300354,560.818787 
	C1004.042175,558.989197 1005.066162,558.210266 1005.132874,546.221741 
	C1005.314575,513.564819 1005.282471,480.905731 1005.123718,448.248505 
	C1005.072876,437.798798 1003.479553,436.407837 993.040283,435.113831 
	C990.847961,434.842072 987.860168,435.365540 989.291809,431.132019 
	C1021.126587,431.132019 1053.053345,431.132019 1085.256958,431.132019 
	C1085.256958,440.315582 1085.256958,449.386017 1085.256958,459.647705 
	C1083.575684,458.558289 1082.138184,458.139221 1081.719849,457.243958 
	C1080.963013,455.623688 1080.868286,453.705048 1080.402100,451.936035 
	C1078.405396,444.358643 1074.687500,441.007782 1066.879150,439.997498 
	C1063.748413,439.592438 1060.570557,439.409973 1057.412231,439.386078 
	C1047.437988,439.310669 1037.462891,439.358276 1027.188232,439.358276 
	C1027.188232,456.821716 1027.188232,473.923065 1027.188232,490.833679 
	C1039.144531,490.833679 1051.052856,491.274353 1062.904541,490.647430 
	C1068.813110,490.334839 1069.551270,484.534088 1070.787231,479.808990 
	C1071.184082,478.291656 1072.334351,476.971375 1073.139893,475.560944 
	C1073.642334,475.796936 1074.144653,476.032898 1074.647095,476.268890 
	C1074.647095,489.349701 1074.647095,502.430542 1074.647095,515.569458 
	C1070.191406,517.227966 1071.170044,513.624451 1070.560547,511.602081 
	C1069.843750,509.223450 1069.104492,506.851593 1068.145996,504.148376 
z"/>
<path fill="#0B1D39" opacity="1.000000" stroke="none" 
	d="
M1152.163330,485.615265 
	C1150.765381,501.255127 1152.540527,515.850342 1159.113525,529.865356 
	C1172.619141,558.662537 1203.567505,563.630920 1225.042236,556.001648 
	C1233.810791,552.886536 1239.927979,546.836914 1243.339233,538.047119 
	C1243.895386,536.614258 1245.501587,535.588867 1246.622437,534.375183 
	C1247.050171,534.708008 1247.477783,535.040833 1247.905396,535.373718 
	C1246.549561,542.861511 1245.300903,550.371887 1243.737305,557.816040 
	C1243.461792,559.127991 1242.084106,560.835266 1240.854370,561.227356 
	C1215.249512,569.389404 1189.497192,571.686401 1164.244751,560.440186 
	C1134.714966,547.289062 1124.813843,518.032349 1127.388550,491.861115 
	C1131.075806,454.381622 1161.187378,425.666992 1205.864014,428.350067 
	C1217.263184,429.034668 1228.559692,431.628204 1239.852295,433.632782 
	C1241.268433,433.884125 1243.413818,435.872589 1243.452393,437.111237 
	C1243.752197,446.743958 1243.617920,456.390228 1243.617920,466.032288 
	C1243.083740,466.355133 1242.549561,466.677979 1242.015381,467.000824 
	C1241.010010,466.082489 1239.427246,465.340637 1239.084595,464.219757 
	C1232.353027,442.192719 1220.600220,434.357178 1197.168945,436.459747 
	C1176.168579,438.344177 1161.629395,450.424255 1155.252319,471.542816 
	C1153.910889,475.985229 1153.198853,480.617706 1152.163330,485.615265 
z"/>
<path fill="#10203B" opacity="1.000000" stroke="none" 
	d="
M870.551880,448.007172 
	C870.391785,447.538788 870.141479,447.080963 870.085083,446.600372 
	C869.010559,437.438110 867.810425,436.299194 858.368225,435.037720 
	C856.390869,434.773590 853.080688,435.614105 854.442871,431.158264 
	C886.327759,431.158264 918.263306,431.158264 950.526245,431.158264 
	C950.526245,440.260651 950.526245,449.329834 950.526245,459.782928 
	C948.822083,458.477112 947.511230,457.900177 946.912109,456.897827 
	C946.266602,455.817841 946.331543,454.328491 946.011169,453.036469 
	C943.962830,444.775391 940.037537,440.569611 931.590942,440.193573 
	C918.648560,439.617401 905.661560,440.042267 892.260254,440.042267 
	C892.260254,456.963318 892.260254,474.209595 892.260254,491.559875 
	C903.864014,491.559875 915.611572,491.826843 927.336792,491.431122 
	C932.161865,491.268280 934.186035,487.243591 935.051208,482.831879 
	C935.339600,481.361206 935.438782,479.827606 935.936523,478.434174 
	C936.203979,477.685120 937.132812,477.172241 937.763306,476.552826 
	C938.381958,477.321075 939.509766,478.072662 939.535461,478.860260 
	C939.687622,483.520111 939.573608,488.188324 939.568848,492.853699 
	C939.560486,500.989136 939.566467,509.124573 939.566467,518.662781 
	C937.749817,517.234558 936.425110,516.691895 936.003235,515.746460 
	C935.342896,514.266663 935.325623,512.507507 934.979248,510.878784 
	C933.472046,503.792358 931.242188,501.250092 923.961914,500.929413 
	C913.494568,500.468384 902.991760,500.811707 891.820496,500.811707 
	C891.820496,503.431854 891.814636,506.198517 891.821411,508.965210 
	C891.852844,521.795227 891.744263,534.627747 891.966125,547.454468 
	C892.149475,558.062256 893.706421,559.520691 904.483521,560.724060 
	C905.311523,560.816528 906.283020,560.664978 906.932373,561.053650 
	C907.754700,561.545715 908.315369,562.475159 908.988892,563.215942 
	C908.288391,563.723572 907.612671,564.272583 906.873230,564.715210 
	C906.629150,564.861328 906.220825,564.731079 905.887573,564.730530 
	C889.230957,564.705933 872.574402,564.684204 855.917847,564.644104 
	C855.435364,564.642944 854.953430,564.446228 853.450928,564.117310 
	C854.512207,562.843872 855.078857,561.588989 856.015930,561.177368 
	C857.341736,560.595093 858.946594,560.667297 860.422363,560.404175 
	C868.416931,558.978943 869.405090,557.883850 870.608276,549.236206 
	C871.409912,547.664734 871.967651,546.605896 871.969299,545.546265 
	C872.016724,514.300537 872.026001,483.054749 871.948120,451.809174 
	C871.944946,450.540710 871.037781,449.274475 870.551880,448.007172 
z"/>
<path fill="#D3B160" opacity="1.000000" stroke="none" 
	d="
M916.001160,228.001465 
	C930.348206,218.239044 949.553223,218.017853 963.473694,227.454636 
	C977.084595,236.681625 984.376648,254.533340 980.229492,271.411774 
	C978.113647,280.023163 974.566223,288.421143 970.644043,296.414215 
	C966.076355,305.722717 969.843750,319.008942 979.430664,323.962128 
	C988.721436,328.762299 999.400208,325.045410 1003.944885,314.894409 
	C1006.227661,309.795532 1008.144409,304.310211 1008.855103,298.821991 
	C1009.222290,295.986176 1007.259766,292.042114 1005.053284,289.998993 
	C1003.839172,288.874786 999.937134,290.653442 996.669006,291.224304 
	C993.471130,287.405792 993.196472,283.048096 996.592346,279.220856 
	C1000.218140,275.134552 1005.600342,275.114410 1012.974731,279.510468 
	C1012.241211,271.751862 1014.893494,265.692902 1021.142151,261.488037 
	C1026.403687,257.947540 1032.184326,256.384338 1039.275146,257.310211 
	C1034.824707,265.915558 1030.462646,274.093109 1026.334106,282.386871 
	C1017.732422,299.666718 1009.313599,317.037964 1000.625000,334.273560 
	C999.837891,335.834900 997.646179,337.706635 996.098328,337.714233 
	C969.958069,337.842834 943.816406,337.698456 917.315247,337.033661 
	C915.894470,332.693939 920.178528,329.031128 917.605286,325.338013 
	C931.134155,327.710785 942.010193,323.590668 950.807556,313.875946 
	C961.620544,301.935425 967.985107,287.803528 969.879028,271.896729 
	C971.737488,256.287445 967.799561,242.698395 953.494080,233.998322 
	C942.254761,227.163025 930.640381,228.467621 918.933472,232.970215 
	C917.874329,231.096207 916.937744,229.548843 916.001160,228.001465 
z"/>
<path fill="#AC843E" opacity="1.000000" stroke="none" 
	d="
M833.952271,337.609680 
	C815.983643,337.747192 798.015015,337.933838 780.046509,337.919250 
	C778.755371,337.918182 776.842957,336.760437 776.266174,335.613953 
	C763.417908,310.072723 750.714722,284.458496 738.008362,258.846008 
	C737.810120,258.446533 737.917358,257.895508 737.882324,257.419159 
	C751.040771,255.405014 762.536438,263.816376 763.916565,276.461243 
	C764.093872,278.085480 763.857666,279.786499 766.591064,278.443756 
	C766.796692,280.720917 767.385132,283.239899 766.394531,284.647644 
	C763.602295,288.615509 766.220398,289.710785 769.030701,291.011383 
	C764.542114,301.085114 769.300232,309.625244 774.257568,317.640594 
	C776.307739,320.955353 780.439758,323.764954 784.222351,325.061798 
	C791.950745,327.711487 798.926697,324.904785 803.706604,318.536346 
	C808.505371,312.142731 810.077087,305.123871 806.414551,297.062164 
	C802.388367,288.200073 798.650269,279.037659 796.296692,269.628357 
	C793.404541,258.065857 796.902100,247.236603 804.082092,237.480865 
	C802.812744,244.215149 804.116394,247.234467 809.520386,249.559174 
	C799.162415,271.635406 815.594910,315.786835 840.844849,325.084656 
	C837.367188,328.396118 834.069214,331.408356 830.858032,334.341217 
	C832.281738,335.845093 833.117004,336.727386 833.952271,337.609680 
z"/>
<path fill="#B38A42" opacity="1.000000" stroke="none" 
	d="
M1547.030029,489.989105 
	C1594.283203,491.352966 1641.041138,492.711395 1687.799194,494.069824 
	C1687.797119,494.286652 1687.795166,494.503479 1687.793213,494.720306 
	C1615.253418,496.859528 1542.713623,498.998718 1470.304321,501.134064 
	C1470.304321,496.664398 1470.304321,492.522858 1470.304321,487.780548 
	C1495.347900,488.504333 1520.941284,489.244019 1547.030029,489.989105 
z"/>
<path fill="#AC843E" opacity="1.000000" stroke="none" 
	d="
M915.927734,364.472168 
	C891.251038,364.549011 866.574402,364.625854 841.444580,364.212738 
	C841.776428,362.271820 842.227539,359.993500 843.406189,359.517822 
	C847.754883,357.762665 850.133301,355.446472 848.407166,350.432922 
	C848.083984,349.494232 848.772461,348.207214 848.994141,347.080933 
	C872.348755,347.029053 895.703491,346.977142 919.474976,347.379456 
	C918.570374,353.379791 917.249084,358.925995 915.927734,364.472168 
z"/>
<path fill="#BF984D" opacity="1.000000" stroke="none" 
	d="
M879.076843,246.201218 
	C880.443420,239.109055 881.809998,232.016891 883.588196,224.533005 
	C887.037537,224.766907 890.075256,225.392502 893.113037,226.018097 
	C894.410400,232.047485 895.707825,238.076874 897.040161,244.860931 
	C898.273987,247.744690 899.473022,249.873749 900.678894,252.410065 
	C901.589844,256.096069 902.493958,259.374817 903.371765,262.558075 
	C895.805725,268.300354 895.753174,269.973999 902.766479,275.614014 
	C903.024841,275.821808 903.283569,276.029785 903.532227,276.249023 
	C907.098083,279.392853 907.043335,280.988861 902.871704,283.241760 
	C900.027832,284.777557 896.932312,285.847290 893.725891,286.853363 
	C891.974670,283.636230 890.446838,280.691193 888.494446,276.927856 
	C885.266846,281.334564 884.827271,287.890289 877.659363,285.044189 
	C875.025818,283.889832 872.725830,282.869202 870.257324,281.566101 
	C868.797363,276.320343 872.998535,274.959229 875.912659,273.803223 
	C879.996155,272.183319 879.668518,269.872467 878.384705,266.893188 
	C877.748108,265.416016 877.107117,263.581757 875.893127,262.783264 
	C872.883972,260.803955 872.420410,258.937012 874.848633,256.197144 
	C875.547546,255.408417 875.651672,254.092529 876.310791,252.824707 
	C877.420959,250.487778 878.248901,248.344498 879.076843,246.201218 
z"/>
<path fill="#A47C37" opacity="1.000000" stroke="none" 
	d="
M848.531433,347.002380 
	C848.772461,348.207214 848.083984,349.494232 848.407166,350.432922 
	C850.133301,355.446472 847.754883,357.762665 843.406189,359.517822 
	C842.227539,359.993500 841.776428,362.271820 840.992004,364.088684 
	C819.914429,364.454590 798.836304,364.454590 777.438477,364.454590 
	C777.438477,358.717102 777.438477,353.144409 777.438477,346.923798 
	C800.973816,346.923798 824.521240,346.923798 848.531433,347.002380 
z"/>
<path fill="#BF984D" opacity="1.000000" stroke="none" 
	d="
M551.189331,645.946167 
	C549.361572,646.669373 547.431030,647.377014 545.522461,647.321899 
	C496.226074,645.900452 446.932648,644.376465 397.636993,642.929749 
	C386.377960,642.599426 375.112457,642.488342 363.874329,641.372803 
	C426.292725,639.671814 488.711151,637.970825 551.096802,636.270752 
	C551.096802,639.507263 551.096802,642.541260 551.189331,645.946167 
z"/>
<path fill="#BF984D" opacity="1.000000" stroke="none" 
	d="
M1254.115967,647.538574 
	C1252.579468,647.451050 1251.470093,647.348755 1250.636230,647.271851 
	C1250.636230,643.583496 1250.636230,640.192627 1250.636230,636.201965 
	C1308.579712,637.898804 1366.836304,639.604797 1425.092896,641.310852 
	C1425.110962,641.422852 1425.129150,641.534912 1425.147339,641.646973 
	C1421.843750,641.961914 1418.545654,642.467896 1415.235718,642.562927 
	C1373.143311,643.771973 1331.048218,644.888245 1288.956055,646.109314 
	C1277.481201,646.442261 1266.013916,647.044922 1254.115967,647.538574 
z"/>
<path fill="#AC843E" opacity="1.000000" stroke="none" 
	d="
M924.193542,382.334900 
	C884.740417,382.383423 845.287231,382.423706 805.834167,382.498474 
	C803.108154,382.503632 800.864502,382.385681 800.862915,378.685242 
	C800.861267,374.915009 802.625977,373.934814 806.139709,373.944733 
	C845.431091,374.055817 884.722656,374.051178 924.492798,374.523743 
	C924.712158,377.424835 924.452881,379.879883 924.193542,382.334900 
z"/>
<path fill="#16253F" opacity="1.000000" stroke="none" 
	d="
M1151.679321,646.995850 
	C1151.721191,650.658508 1151.832764,653.824036 1151.781738,656.986938 
	C1151.719604,660.834106 1151.440674,664.731995 1157.036255,665.397461 
	C1152.018066,665.397461 1146.999878,665.397461 1140.540894,665.397461 
	C1149.260254,663.295898 1147.049316,657.204407 1147.157349,652.203613 
	C1147.340820,643.713135 1147.112305,635.214111 1147.265991,626.722534 
	C1147.337524,622.767334 1146.786011,619.611572 1140.993896,619.819214 
	C1146.822632,616.858948 1153.416382,617.911865 1156.665527,621.820251 
	C1163.689941,630.270020 1170.638306,638.783020 1177.636230,647.254883 
	C1178.862915,648.739868 1180.179688,650.150513 1182.293945,652.546387 
	C1182.293945,642.160645 1182.554321,632.965454 1182.069946,623.809692 
	C1181.975342,622.020325 1178.991821,620.383789 1177.369751,618.706787 
	C1181.860107,618.706787 1187.011353,618.706787 1192.162476,618.706787 
	C1186.760132,619.824646 1186.795898,623.685608 1186.838867,627.877930 
	C1186.966919,640.365540 1186.884888,652.855408 1186.884888,665.456543 
	C1183.703491,667.159485 1181.835449,665.654968 1179.869995,663.182556 
	C1170.970825,651.988464 1161.918335,640.916321 1151.676880,629.959106 
	C1151.676880,635.471924 1151.676880,640.984802 1151.679321,646.995850 
z"/>
<path fill="#10203B" opacity="1.000000" stroke="none" 
	d="
M685.322754,648.638794 
	C681.164551,624.664246 701.817261,612.680481 719.950684,618.914917 
	C730.247925,622.455200 736.472107,631.882324 735.818970,642.830872 
	C735.124268,654.476807 727.381104,664.008240 716.816223,666.222534 
	C701.567749,669.418335 690.056702,663.116943 685.322754,648.638794 
M693.917175,642.410950 
	C695.624939,647.687073 696.202942,653.768066 699.271057,658.075073 
	C706.063232,667.609802 720.437927,665.275208 724.615234,654.341858 
	C727.832886,645.920227 727.497314,637.341614 723.448486,629.167480 
	C720.444702,623.103149 714.540100,620.024231 707.850769,620.597412 
	C700.920898,621.191284 697.093262,625.507690 695.244385,631.664978 
	C694.304688,634.794373 694.319397,638.210388 693.917175,642.410950 
z"/>
<path fill="#16253F" opacity="1.000000" stroke="none" 
	d="
M1103.214722,653.142334 
	C1097.468872,663.888489 1086.941895,668.776245 1074.900391,666.555115 
	C1063.388550,664.431702 1056.467529,657.308228 1054.954224,646.025452 
	C1053.458252,634.873291 1058.765503,624.594360 1068.416382,619.952209 
	C1078.627930,615.040405 1092.093872,616.979675 1099.382080,624.890137 
	C1106.995239,633.153442 1107.294067,642.743713 1103.214722,653.142334 
M1073.733398,621.711365 
	C1060.625488,626.197571 1061.201416,654.435730 1072.412598,661.291016 
	C1080.691284,666.353210 1091.308105,663.831238 1094.203735,654.631104 
	C1096.110229,648.573669 1096.501099,641.503784 1095.540283,635.196594 
	C1093.807495,623.822693 1085.895508,619.200684 1073.733398,621.711365 
z"/>
<path fill="#C39C4D" opacity="1.000000" stroke="none" 
	d="
M886.290649,149.348145 
	C887.053284,147.879013 887.651245,146.721924 888.159729,145.737961 
	C891.803040,151.794937 895.425171,157.734283 898.964966,163.722229 
	C903.488892,171.374954 902.652832,178.055527 897.751465,185.540192 
	C894.722900,190.165039 893.020630,195.663910 890.776611,200.793869 
	C890.056702,202.439713 889.508362,204.160660 888.881531,205.847229 
	C888.396423,205.810013 887.911255,205.772797 887.426086,205.735565 
	C886.960327,204.089249 886.661438,202.372055 885.997925,200.809677 
	C883.867737,195.793152 882.455261,190.171463 879.208740,185.993134 
	C872.836609,177.792023 873.822205,170.066391 878.532288,161.957657 
	C880.951294,157.793304 883.587769,153.755295 886.290649,149.348145 
z"/>
<path fill="#CBAA63" opacity="1.000000" stroke="none" 
	d="
M893.283447,225.726242 
	C890.075256,225.392502 887.037537,224.766907 883.634277,224.092377 
	C882.138062,223.115173 881.039062,222.144714 879.871155,221.265747 
	C874.238831,217.026917 874.135620,214.442596 880.065430,209.215546 
	C881.930481,209.027023 883.165833,209.049225 884.401123,209.071442 
	C887.044189,208.894791 889.687256,208.718140 892.414856,208.535828 
	C892.978088,204.732513 893.159790,200.732346 894.218384,196.979523 
	C895.992065,190.691986 899.370911,185.380692 905.909363,183.004974 
	C912.821838,180.493408 920.428223,183.448227 922.883545,189.413193 
	C925.530945,195.844742 922.287415,202.443008 914.425171,205.927505 
	C913.567749,201.179611 911.164673,198.025131 905.825806,198.596664 
	C901.108765,199.101639 898.952515,202.374588 897.893860,206.439056 
	C897.565857,207.698654 898.009155,209.558273 898.793945,210.638535 
	C901.957886,214.993958 901.648560,217.208496 897.384033,220.707901 
	C895.828613,221.984299 894.750122,223.841919 893.283447,225.726242 
z"/>
<path fill="#B38A42" opacity="1.000000" stroke="none" 
	d="
M237.972839,498.720367 
	C210.370422,498.050018 182.766861,497.423187 155.165985,496.694733 
	C135.392761,496.172882 115.623138,495.515015 95.839119,493.879425 
	C145.249191,492.541016 194.659256,491.202576 244.533203,490.299622 
	C243.851837,492.249481 242.783157,493.830627 241.538239,495.258057 
	C240.453064,496.502289 239.169006,497.572998 237.972839,498.720367 
z"/>
<path fill="#16253F" opacity="1.000000" stroke="none" 
	d="
M885.267761,622.837891 
	C885.161011,631.571411 885.125122,639.901978 885.135010,648.232605 
	C885.143921,655.759277 883.090515,662.316895 875.448242,665.211060 
	C867.042725,668.394348 858.375122,668.446594 851.567627,661.984741 
	C848.809753,659.366943 847.335815,654.465759 846.975891,650.451294 
	C846.279419,642.682739 846.787231,634.806213 846.795532,626.974426 
	C846.801758,621.144531 846.801514,621.144531 840.759949,618.656616 
	C847.732483,618.656616 853.632202,618.656616 859.531921,618.656616 
	C854.286743,619.687622 854.794067,623.589355 854.840881,627.375427 
	C854.933655,634.872986 854.783142,642.374390 854.932251,649.870239 
	C855.107666,658.686035 858.843140,662.960266 866.374817,663.331421 
	C874.944702,663.753784 879.709351,659.789307 880.227112,650.649109 
	C880.725586,641.849487 880.564453,632.988892 880.153687,624.180298 
	C880.067200,622.325073 877.634583,620.579285 876.343811,618.863892 
	C880.211243,618.863892 885.151367,618.863892 890.278320,618.863892 
	C888.527649,620.134644 886.943054,621.284851 885.267761,622.837891 
z"/>
<path fill="#CBAA63" opacity="1.000000" stroke="none" 
	d="
M958.000977,346.993256 
	C970.638245,346.815430 983.276733,346.694458 995.911865,346.419037 
	C998.993347,346.351898 999.982361,347.509613 999.831787,350.531555 
	C999.609131,355.000183 999.774170,359.488129 999.774170,364.727142 
	C986.293152,364.727142 973.073486,364.727142 959.410889,364.244507 
	C958.368286,362.533417 957.993042,361.109772 957.126526,360.113373 
	C954.645691,357.260712 952.501404,354.707275 956.697144,351.391815 
	C957.677917,350.616791 957.594666,348.495239 958.000977,346.993256 
z"/>
<path fill="#DDBD70" opacity="1.000000" stroke="none" 
	d="
M917.156982,325.237000 
	C920.178528,329.031128 915.894470,332.693939 916.916992,336.908661 
	C915.597656,337.399750 914.316711,337.434998 912.420105,337.096741 
	C910.466858,336.916382 909.129333,337.109528 907.791809,337.302673 
	C897.481140,337.476593 887.170471,337.650513 876.308228,337.392883 
	C869.065125,334.837524 865.528381,330.196350 865.060913,323.077454 
	C867.923218,320.943970 870.565186,319.014771 873.459717,316.984589 
	C874.139221,316.547546 874.566284,316.211517 875.277527,315.996948 
	C876.503174,316.828430 877.444580,317.538483 878.541626,318.564331 
	C881.886902,322.782074 885.076538,326.684052 888.558594,330.943695 
	C892.246643,326.597717 895.289734,322.666870 898.752563,319.149200 
	C899.742615,318.143463 902.292175,317.562042 903.536072,318.114899 
	C908.208557,320.191437 912.637085,322.817078 917.156982,325.237000 
z"/>
<path fill="#BF984D" opacity="1.000000" stroke="none" 
	d="
M238.426819,498.811829 
	C239.169006,497.572998 240.453064,496.502289 241.538239,495.258057 
	C242.783157,493.830627 243.851837,492.249481 244.999268,490.355774 
	C247.015320,489.869843 249.029175,489.763214 251.743530,490.065002 
	C256.669830,490.551636 261.131165,492.945160 264.967957,489.199432 
	C278.868134,488.693909 292.768311,488.188385 306.511108,487.688568 
	C306.511108,492.279999 306.511108,496.299683 306.511108,501.204071 
	C284.138153,500.442963 261.509491,499.673126 238.426819,498.811829 
z"/>
<path fill="#10203B" opacity="1.000000" stroke="none" 
	d="
M617.663696,636.113037 
	C614.104614,624.937744 621.105225,616.857422 633.738159,617.287231 
	C637.361633,617.410583 640.960754,618.251526 645.002380,618.824646 
	C644.670654,622.426453 644.375061,625.636475 644.001343,629.695007 
	C643.019958,628.594421 642.375793,628.169861 642.163147,627.587585 
	C639.962585,621.561646 634.746460,618.768616 628.903992,621.223694 
	C626.929565,622.053284 624.477173,624.595703 624.412231,626.432129 
	C624.321106,629.006775 625.581970,632.423889 627.483154,634.090027 
	C630.403015,636.648926 634.353699,638.035645 637.876770,639.901245 
	C644.825500,643.580811 647.795227,648.324829 646.971436,654.463135 
	C646.148682,660.594055 641.511475,665.508667 633.982971,666.336853 
	C628.169983,666.976318 622.180908,666.015015 616.189941,665.762085 
	C616.189941,661.154602 616.189941,657.588013 616.189941,652.571045 
	C617.331360,654.451904 617.871277,655.095276 618.148438,655.836914 
	C620.536865,662.229797 626.236694,665.052063 632.899048,663.273010 
	C636.294739,662.366272 638.508667,660.535583 639.082031,656.955505 
	C639.672058,653.271790 638.500183,650.325439 635.264587,648.450439 
	C631.959534,646.535095 628.355103,645.093506 625.205872,642.964966 
	C622.513062,641.144714 620.279114,638.645569 617.663696,636.113037 
z"/>
<path fill="#C39C4D" opacity="1.000000" stroke="none" 
	d="
M957.534912,346.937744 
	C957.594666,348.495239 957.677917,350.616791 956.697144,351.391815 
	C952.501404,354.707275 954.645691,357.260712 957.126526,360.113373 
	C957.993042,361.109772 958.368286,362.533417 958.958740,364.108459 
	C944.914490,364.546600 930.879517,364.638184 916.386108,364.600952 
	C917.249084,358.925995 918.570374,353.379791 919.938721,347.445679 
	C932.346802,346.999237 944.707825,346.940735 957.534912,346.937744 
z"/>
<path fill="#16253F" opacity="1.000000" stroke="none" 
	d="
M938.163147,663.785767 
	C939.283569,661.943237 940.639893,660.235657 940.666931,658.507324 
	C940.854797,646.536011 940.766113,634.560425 940.766113,622.610657 
	C931.865723,620.397217 929.432495,621.403381 924.060791,629.896423 
	C924.060791,625.783936 924.060791,622.263184 924.060791,618.460815 
	C937.908020,618.460815 951.601440,618.460815 965.414429,618.460815 
	C965.414429,622.119812 965.414429,625.598206 965.414429,629.076599 
	C962.998962,619.307922 955.479187,622.200439 948.947632,621.744629 
	C948.947632,634.765686 948.748230,647.367615 949.161987,659.949402 
	C949.224365,661.843262 952.150940,663.642883 953.683838,665.406982 
	C948.173767,665.406982 941.678162,665.406982 935.182556,665.406982 
	C935.117493,665.218262 935.052429,665.029541 934.987427,664.840759 
	C935.919617,664.530884 936.851746,664.220947 938.163147,663.785767 
z"/>
<path fill="#16253F" opacity="1.000000" stroke="none" 
	d="
M782.959351,618.364929 
	C786.171570,618.372742 788.907349,618.372742 791.643188,618.372742 
	C784.863953,619.680847 786.127991,624.807739 786.116333,629.212097 
	C786.092468,638.188843 786.270325,647.169373 786.054749,656.140930 
	C785.941040,660.871887 787.230774,663.094666 792.510193,662.720276 
	C798.940369,662.264282 806.191711,664.191833 807.461182,653.559937 
	C807.994202,654.048584 808.527222,654.537170 809.060181,655.025818 
	C808.711853,658.553345 808.363464,662.080933 808.017639,665.582947 
	C796.046021,665.582947 784.415588,665.582947 772.785095,665.582947 
	C778.390015,664.243652 778.154663,660.156128 778.088867,655.858826 
	C777.941284,646.219421 778.037659,636.575989 778.073547,626.934326 
	C778.087952,623.064636 778.298706,619.128723 771.728943,619.958069 
	C772.026367,619.424377 772.323730,618.890747 772.621094,618.357117 
	C775.908386,618.357117 779.195679,618.357117 782.959351,618.364929 
z"/>
<path fill="#B89047" opacity="1.000000" stroke="none" 
	d="
M1447.605225,484.345154 
	C1450.805542,487.946533 1453.777222,491.275391 1456.772461,494.630615 
	C1451.659302,500.621338 1446.622192,506.522888 1441.450562,512.582031 
	C1436.144775,506.478668 1430.950562,500.503662 1425.810547,494.590912 
	C1430.943359,488.564117 1436.080200,482.532715 1441.542480,476.119171 
	C1443.521118,478.816711 1445.448853,481.444641 1447.605225,484.345154 
z"/>
<path fill="#BF984D" opacity="1.000000" stroke="none" 
	d="
M320.428223,493.624817 
	C323.175415,490.687469 325.791290,488.114960 328.159271,485.331512 
	C330.511475,482.566528 332.614288,479.589417 335.061920,476.398407 
	C340.499634,482.672089 345.662781,488.628937 350.885406,494.654449 
	C345.844910,500.498383 340.688171,506.477051 335.491394,512.502197 
	C330.223602,506.626953 325.133545,500.968628 320.094788,495.265015 
	C319.882202,495.024384 320.146240,494.362732 320.428223,493.624817 
z"/>
<path fill="#BF984D" opacity="1.000000" stroke="none" 
	d="
M884.493774,208.666718 
	C883.165833,209.049225 881.930481,209.027023 880.318848,208.995483 
	C879.511353,207.558395 879.202087,206.079208 878.625854,204.712601 
	C876.920105,200.667465 873.983521,198.275620 869.411499,198.505081 
	C865.022156,198.725403 863.037292,201.486191 862.506348,205.540482 
	C856.516113,204.340927 852.710327,199.286057 852.992126,193.048447 
	C853.244629,187.460052 857.609009,182.924179 863.436035,182.194305 
	C870.350464,181.328232 877.061890,184.801437 880.206726,192.115097 
	C882.387695,197.187363 883.175964,202.858459 884.493774,208.666718 
z"/>
<path fill="#CBAA63" opacity="1.000000" stroke="none" 
	d="
M924.612915,382.414215 
	C924.452881,379.879883 924.712158,377.424835 924.955322,374.571259 
	C940.254211,374.119446 955.569397,374.105347 970.883789,373.982025 
	C974.203430,373.955322 975.346313,375.751373 975.382629,378.624786 
	C975.423828,381.887604 973.462769,382.788513 970.485413,382.760468 
	C955.334900,382.617859 940.183472,382.572784 924.612915,382.414215 
z"/>
<path fill="#16253F" opacity="1.000000" stroke="none" 
	d="
M1014.550537,618.286560 
	C1016.198364,618.360474 1017.405945,618.462891 1018.613586,618.565308 
	C1013.142334,619.560120 1012.887817,623.250305 1012.964294,627.530518 
	C1013.133606,637.005737 1013.003357,646.486084 1013.028625,655.964233 
	C1013.046448,662.648315 1013.070984,662.648254 1019.587891,665.506287 
	C1012.379456,665.506287 1006.185181,665.506287 999.990967,665.506287 
	C1006.192627,664.027405 1005.022766,659.136230 1005.034241,654.871216 
	C1005.058838,645.725586 1004.912292,636.577942 1005.068542,627.435120 
	C1005.137085,623.422058 1005.017456,619.869019 1000.003601,618.315063 
	C1004.705872,618.315063 1009.408142,618.315063 1014.550537,618.286560 
z"/>
<path fill="#D3B160" opacity="1.000000" stroke="none" 
	d="
M816.848450,225.871307 
	C830.272156,217.513916 850.310486,218.999100 861.843994,229.837204 
	C860.829590,231.659912 859.863892,232.855286 858.544922,233.982178 
	C853.168091,232.500076 848.144531,231.086472 842.788452,229.499756 
	C839.638306,229.578278 836.820801,229.829910 833.622192,230.058899 
	C830.112305,231.123840 826.983398,232.211426 823.460876,233.222412 
	C820.994263,230.720978 818.921326,228.296143 816.848450,225.871307 
z"/>
<path fill="#BF984D" opacity="1.000000" stroke="none" 
	d="
M563.757019,647.261963 
	C561.897827,645.576233 560.273193,644.159668 558.520203,642.631226 
	C563.057922,637.324036 567.185486,632.496643 571.465454,627.490967 
	C575.632751,632.437317 579.565796,637.105530 583.644226,641.946411 
	C579.723938,646.575623 575.693054,651.335388 571.394653,656.411011 
	C568.832520,653.337708 566.412048,650.434448 563.757019,647.261963 
z"/>
<path fill="#BF984D" opacity="1.000000" stroke="none" 
	d="
M1242.280029,643.197021 
	C1238.465942,647.585815 1234.909668,651.726257 1231.070312,656.196106 
	C1226.992798,651.439026 1222.950562,646.722961 1218.898682,641.995728 
	C1222.946167,637.123108 1226.921021,632.338074 1230.905273,627.541626 
	C1234.797729,632.049927 1238.589355,636.384216 1242.281006,640.801880 
	C1242.668335,641.265320 1242.466309,642.221130 1242.280029,643.197021 
z"/>
<path fill="#B89047" opacity="1.000000" stroke="none" 
	d="
M816.500122,225.906784 
	C818.921326,228.296143 820.994263,230.720978 823.145752,233.439255 
	C820.415710,236.366928 817.607239,239.001144 814.532227,241.846558 
	C813.702576,243.034485 813.139343,244.011230 812.336304,245.149231 
	C811.272278,246.596878 810.447998,247.883240 809.623718,249.169586 
	C804.116394,247.234467 802.812744,244.215149 804.349731,237.274689 
	C808.130676,233.356033 812.141235,229.649139 816.500122,225.906784 
z"/>
<path fill="#B89047" opacity="1.000000" stroke="none" 
	d="
M834.413879,337.714081 
	C833.117004,336.727386 832.281738,335.845093 830.858032,334.341217 
	C834.069214,331.408356 837.367188,328.396118 841.260437,325.096069 
	C845.237793,325.156128 848.619873,325.504028 852.320312,325.940125 
	C853.076538,326.069183 853.514465,326.110107 853.891602,326.484802 
	C851.790283,328.122803 850.912354,329.752960 851.992859,332.197845 
	C852.765625,333.946442 853.272705,335.812439 853.898315,337.626038 
	C847.557373,337.690216 841.216431,337.754364 834.413879,337.714081 
M848.484802,328.587219 
	C848.484802,328.587219 848.419617,328.479797 848.484802,328.587219 
z"/>
<path fill="#B89047" opacity="1.000000" stroke="none" 
	d="
M769.346130,290.870575 
	C766.220398,289.710785 763.602295,288.615509 766.394531,284.647644 
	C767.385132,283.239899 766.796692,280.720917 766.964661,278.351074 
	C772.412842,275.230164 777.152954,275.849426 780.300964,279.730591 
	C783.266113,283.386261 782.748047,288.253571 778.806458,292.670654 
	C776.204895,290.070404 773.503418,287.447449 769.346130,290.870575 
z"/>
<path fill="#D3B160" opacity="1.000000" stroke="none" 
	d="
M854.363892,337.734619 
	C853.272705,335.812439 852.765625,333.946442 851.992859,332.197845 
	C850.912354,329.752960 851.790283,328.122803 854.237549,326.341553 
	C856.093628,325.519196 857.542908,325.173828 859.372314,324.849060 
	C861.448486,324.340332 863.144531,323.811035 864.840637,323.281738 
	C865.528381,330.196350 869.065125,334.837524 875.846924,337.288574 
	C868.901245,337.691559 861.865295,337.767365 854.363892,337.734619 
z"/>
<path fill="#091A36" opacity="1.000000" stroke="none" 
	d="
M709.109314,448.463074 
	C709.799988,449.176788 710.921570,450.349792 710.925171,451.526245 
	C711.020691,482.589996 711.011047,513.654114 710.955627,544.718079 
	C710.953796,545.746826 710.287598,546.774414 709.550659,547.924194 
	C709.119873,515.005188 709.069580,481.964569 709.109314,448.463074 
z"/>
<path fill="#091A36" opacity="1.000000" stroke="none" 
	d="
M870.460083,448.466858 
	C871.037781,449.274475 871.944946,450.540710 871.948120,451.809174 
	C872.026001,483.054749 872.016724,514.300537 871.969299,545.546265 
	C871.967651,546.605896 871.409912,547.664734 870.749512,548.857666 
	C870.381165,515.636414 870.374756,482.281464 870.460083,448.466858 
z"/>
<path fill="#DDBD70" opacity="1.000000" stroke="none" 
	d="
M900.672058,252.002808 
	C899.473022,249.873749 898.273987,247.744690 897.088745,245.250641 
	C898.302979,243.981247 899.598267,243.177780 900.687805,242.155136 
	C905.606934,237.537857 910.467773,232.858505 915.675415,228.101501 
	C916.937744,229.548843 917.874329,231.096207 918.739258,233.222656 
	C911.180603,238.397186 905.286438,244.567337 900.672058,252.002808 
z"/>
<path fill="#DDBD70" opacity="1.000000" stroke="none" 
	d="
M858.898254,234.050659 
	C859.863892,232.855286 860.829590,231.659912 861.941772,230.159943 
	C866.616516,233.816086 871.203308,237.713074 875.634033,241.780014 
	C876.822021,242.870529 877.534363,244.479218 878.770996,246.025635 
	C878.248901,248.344498 877.420959,250.487778 876.036499,252.642944 
	C874.369873,251.030197 873.259827,249.405563 872.062622,247.457458 
	C870.428162,245.506561 868.880737,243.879105 867.243042,241.966156 
	C864.401306,239.137314 861.649780,236.593979 858.898254,234.050659 
z"/>
<path fill="#B38A42" opacity="1.000000" stroke="none" 
	d="
M264.515381,489.131470 
	C261.131165,492.945160 256.669830,490.551636 252.169159,490.144562 
	C255.950455,489.564972 260.006622,489.314270 264.515381,489.131470 
z"/>
<path fill="#D3B160" opacity="1.000000" stroke="none" 
	d="
M908.109253,337.410889 
	C909.129333,337.109528 910.466858,336.916382 912.035767,337.042969 
	C910.987000,337.414825 909.706848,337.466949 908.109253,337.410889 
z"/>
<path fill="#FAFBFB" opacity="1.000000" stroke="none" 
	d="
M434.105225,420.055969 
	C434.133636,416.275940 434.133636,412.985168 434.133636,409.874664 
	C454.228729,405.124969 472.172302,410.784698 480.703278,424.165405 
	C489.547760,438.037781 489.132141,460.245605 479.801636,472.341888 
	C470.492737,484.410278 452.567108,488.372864 434.076813,482.119965 
	C434.076813,461.731110 434.076813,441.138153 434.105225,420.055969 
z"/>
<path fill="#F9F9FA" opacity="1.000000" stroke="none" 
	d="
M768.205872,486.097961 
	C757.988281,498.575043 744.466980,497.392761 730.585266,496.586670 
	C730.585266,477.296295 730.585266,458.444763 730.585266,439.290619 
	C745.131714,437.635986 759.198059,437.269257 768.304626,450.628723 
	C775.968018,461.871002 775.737244,474.049408 768.205872,486.097961 
z"/>
<path fill="#FEFDFC" opacity="1.000000" stroke="none" 
	d="
M900.678894,252.410065 
	C905.286438,244.567337 911.180603,238.397186 918.861694,233.549286 
	C930.640381,228.467621 942.254761,227.163025 953.494080,233.998322 
	C967.799561,242.698395 971.737488,256.287445 969.879028,271.896729 
	C967.985107,287.803528 961.620544,301.935425 950.807556,313.875946 
	C942.010193,323.590668 931.134155,327.710785 917.605286,325.338013 
	C912.637085,322.817078 908.208557,320.191437 903.536072,318.114899 
	C902.292175,317.562042 899.742615,318.143463 898.752563,319.149200 
	C895.289734,322.666870 892.246643,326.597717 888.558594,330.943695 
	C885.076538,326.684052 881.886902,322.782074 879.018555,318.493103 
	C880.589294,318.062042 881.838684,318.017944 883.364990,318.171936 
	C885.107666,320.854950 886.573364,323.339844 887.940735,325.657928 
	C893.422791,317.812042 898.686462,310.278656 903.512939,303.371002 
	C899.368347,298.243195 895.329712,293.246460 891.659058,288.185486 
	C892.667847,287.789368 893.308533,287.457397 893.949280,287.125458 
	C896.932312,285.847290 900.027832,284.777557 902.871704,283.241760 
	C907.043335,280.988861 907.098083,279.392853 903.532227,276.249023 
	C903.283569,276.029785 903.024841,275.821808 902.766479,275.614014 
	C895.753174,269.973999 895.805725,268.300354 903.371765,262.558075 
	C902.493958,259.374817 901.589844,256.096069 900.678894,252.410065 
z"/>
<path fill="#FCFBF9" opacity="1.000000" stroke="none" 
	d="
M852.002014,325.851959 
	C848.619873,325.504028 845.237793,325.156128 841.440063,324.796783 
	C815.594910,315.786835 799.162415,271.635406 809.520386,249.559189 
	C810.447998,247.883240 811.272278,246.596878 812.762085,245.159805 
	C817.728149,245.564240 817.602722,247.638412 815.759460,250.854187 
	C814.774353,252.572861 814.426392,254.754395 814.182922,256.774292 
	C813.916382,258.985779 813.961365,261.261444 814.115845,263.492157 
	C814.641052,271.075378 810.813538,279.942627 820.302246,284.961670 
	C820.524597,285.079254 820.565918,285.539093 820.848083,286.212555 
	C816.028076,290.350861 819.234192,294.190338 821.694885,298.127380 
	C822.542908,299.484131 823.794495,300.909485 823.879761,302.361206 
	C824.122192,306.486755 826.834167,308.211487 830.117065,308.861603 
	C832.682800,309.369751 833.848267,310.137238 834.064941,312.858276 
	C834.384277,316.869415 838.884766,320.813049 842.615051,319.764252 
	C848.525513,318.102570 850.256958,321.714630 852.002014,325.851959 
z"/>
<path fill="#FEFEFE" opacity="1.000000" stroke="none" 
	d="
M852.320312,325.940125 
	C850.256958,321.714630 848.525513,318.102570 842.615051,319.764252 
	C838.884766,320.813049 834.384277,316.869415 834.064941,312.858276 
	C833.848267,310.137238 832.682800,309.369751 830.117065,308.861603 
	C826.834167,308.211487 824.122192,306.486755 823.879761,302.361206 
	C823.794495,300.909485 822.542908,299.484131 821.694885,298.127380 
	C819.234192,294.190338 816.028076,290.350861 820.848083,286.212555 
	C820.565918,285.539093 820.524597,285.079254 820.302246,284.961670 
	C810.813538,279.942627 814.641052,271.075378 814.115845,263.492157 
	C813.961365,261.261444 813.916382,258.985779 814.182922,256.774292 
	C814.426392,254.754395 814.774353,252.572861 815.759460,250.854187 
	C817.602722,247.638412 817.728149,245.564240 813.001892,244.998535 
	C813.139343,244.011230 813.702576,243.034485 814.729980,242.170563 
	C819.974670,246.716461 822.975952,239.106293 825.997192,240.384659 
	C828.607361,237.701263 830.722046,235.723328 832.576721,233.525833 
	C833.340515,232.621002 833.544678,231.243881 834.003296,230.081543 
	C836.820801,229.829910 839.638306,229.578278 842.752686,229.925690 
	C842.560059,234.239090 844.917786,235.918076 847.931213,235.855728 
	C853.198669,235.746719 857.935181,235.710266 860.574463,241.617737 
	C860.865234,242.268539 864.579102,247.727524 867.333313,242.251678 
	C868.880737,243.879105 870.428162,245.506561 871.836548,247.757706 
	C869.974854,249.235519 868.101379,249.879166 866.558533,250.984329 
	C862.430298,253.941544 862.560974,256.924316 867.332153,259.003113 
	C871.133423,260.659393 871.801941,262.648621 870.261536,266.209900 
	C869.158813,268.759216 869.005127,271.853455 867.477661,274.040955 
	C866.308838,275.714783 863.430664,275.889618 864.495483,279.246613 
	C865.615295,282.776917 868.043823,281.940613 870.425781,281.848572 
	C872.725830,282.869202 875.025818,283.889832 877.653564,285.406067 
	C876.704224,288.108093 874.096436,290.527863 874.409302,292.479279 
	C875.220093,297.535309 871.196045,298.566681 868.702209,300.501953 
	C864.190735,304.002808 864.072754,306.342834 868.802429,309.959076 
	C871.056274,311.682404 872.941223,313.888214 874.993286,315.875427 
	C874.566284,316.211517 874.139221,316.547546 873.054932,316.952576 
	C862.544067,315.776794 861.229614,317.317535 858.992188,324.828491 
	C857.542908,325.173828 856.093628,325.519196 854.298340,326.007782 
	C853.514465,326.110107 853.076538,326.069183 852.320312,325.940125 
z"/>
<path fill="#FCFBF9" opacity="1.000000" stroke="none" 
	d="
M875.277527,315.996918 
	C872.941223,313.888214 871.056274,311.682404 868.802429,309.959076 
	C864.072754,306.342834 864.190735,304.002808 868.702209,300.501953 
	C871.196045,298.566681 875.220093,297.535309 874.409302,292.479279 
	C874.096436,290.527863 876.704224,288.108093 877.987061,285.539795 
	C884.827271,287.890289 885.266846,281.334564 888.494446,276.927856 
	C890.446838,280.691193 891.974670,283.636230 893.725891,286.853363 
	C893.308533,287.457397 892.667847,287.789368 891.443115,287.930267 
	C890.061523,286.620911 889.263794,285.502594 888.596191,284.566650 
	C883.206970,291.413269 878.142029,297.847900 873.153381,304.185547 
	C876.348755,308.620392 879.718445,313.297119 883.088074,317.973846 
	C881.838684,318.017944 880.589294,318.062042 878.862915,318.177338 
	C877.444580,317.538483 876.503174,316.828430 875.277527,315.996918 
z"/>
<path fill="#FCFBF9" opacity="1.000000" stroke="none" 
	d="
M870.257324,281.566101 
	C868.043823,281.940613 865.615295,282.776917 864.495483,279.246613 
	C863.430664,275.889618 866.308838,275.714783 867.477661,274.040955 
	C869.005127,271.853455 869.158813,268.759216 870.261536,266.209900 
	C871.801941,262.648621 871.133423,260.659393 867.332153,259.003113 
	C862.560974,256.924316 862.430298,253.941544 866.558533,250.984329 
	C868.101379,249.879166 869.974854,249.235519 871.923645,248.081177 
	C873.259827,249.405563 874.369873,251.030197 875.754211,252.836578 
	C875.651672,254.092529 875.547546,255.408417 874.848633,256.197144 
	C872.420410,258.937012 872.883972,260.803955 875.893127,262.783264 
	C877.107117,263.581757 877.748108,265.416016 878.384705,266.893188 
	C879.668518,269.872467 879.996155,272.183319 875.912659,273.803223 
	C872.998535,274.959229 868.797363,276.320343 870.257324,281.566101 
z"/>
<path fill="#F9F9FA" opacity="1.000000" stroke="none" 
	d="
M693.909912,641.953857 
	C694.319397,638.210388 694.304688,634.794373 695.244385,631.664978 
	C697.093262,625.507690 700.920898,621.191284 707.850769,620.597412 
	C714.540100,620.024231 720.444702,623.103149 723.448486,629.167480 
	C727.497314,637.341614 727.832886,645.920227 724.615234,654.341858 
	C720.437927,665.275208 706.063232,667.609802 699.271057,658.075073 
	C696.202942,653.768066 695.624939,647.687073 693.909912,641.953857 
z"/>
<path fill="#F9F9FA" opacity="1.000000" stroke="none" 
	d="
M1074.094482,621.516479 
	C1085.895508,619.200684 1093.807495,623.822693 1095.540283,635.196594 
	C1096.501099,641.503784 1096.110229,648.573669 1094.203735,654.631104 
	C1091.308105,663.831238 1080.691284,666.353210 1072.412598,661.291016 
	C1061.201416,654.435730 1060.625488,626.197571 1074.094482,621.516479 
z"/>
<path fill="#FCFBF9" opacity="1.000000" stroke="none" 
	d="
M859.372314,324.849060 
	C861.229614,317.317535 862.544067,315.776794 872.802368,317.053528 
	C870.565186,319.014771 867.923218,320.943970 865.060913,323.077454 
	C863.144531,323.811035 861.448486,324.340332 859.372314,324.849060 
z"/>
<path fill="#FCFBF9" opacity="1.000000" stroke="none" 
	d="
M867.243042,241.966156 
	C864.579102,247.727524 860.865234,242.268539 860.574463,241.617737 
	C857.935181,235.710266 853.198669,235.746719 847.931213,235.855728 
	C844.917786,235.918076 842.560059,234.239090 843.085327,230.098816 
	C848.144531,231.086472 853.168091,232.500076 858.544922,233.982162 
	C861.649780,236.593979 864.401306,239.137314 867.243042,241.966156 
z"/>
<path fill="#FCFBF9" opacity="1.000000" stroke="none" 
	d="
M833.622253,230.058899 
	C833.544678,231.243881 833.340515,232.621002 832.576721,233.525833 
	C830.722046,235.723328 828.607361,237.701263 825.997192,240.384659 
	C822.975952,239.106293 819.974670,246.716461 814.996460,241.959381 
	C817.607239,239.001144 820.415710,236.366928 823.539429,233.515854 
	C826.983398,232.211426 830.112305,231.123840 833.622253,230.058899 
z"/>
<path fill="#D3B160" opacity="1.000000" stroke="none" 
	d="
M848.452209,328.533508 
	C848.419617,328.479797 848.484802,328.587219 848.452209,328.533508 
z"/>
<path fill="#B38A42" opacity="1.000000" stroke="none" 
	d="
M883.364990,318.171936 
	C879.718445,313.297119 876.348755,308.620392 873.153381,304.185547 
	C878.142029,297.847900 883.206970,291.413269 888.596191,284.566650 
	C889.263794,285.502594 890.061523,286.620911 891.075134,287.994446 
	C895.329712,293.246460 899.368347,298.243195 903.512939,303.371002 
	C898.686462,310.278656 893.422791,317.812042 887.940735,325.657928 
	C886.573364,323.339844 885.107666,320.854950 883.364990,318.171936 
z"/>
</svg>