<svg version="1.1" id="Layer_1" xmlns="http://www.w3.org/2000/svg" xmlns:xlink="http://www.w3.org/1999/xlink" x="0px" y="0px"
	 width="100%" viewBox="0 0 1024 672" enable-background="new 0 0 1024 672" xml:space="preserve">
<path fill="#000000" opacity="1.000000" stroke="none" 
	d="
M395.657654,435.888702 
	C404.026825,421.695435 416.680359,416.027405 432.241577,415.988281 
	C468.392639,415.897369 504.544006,415.905640 540.695251,415.894226 
	C558.354858,415.888641 576.014709,415.876617 593.674011,415.961700 
	C615.795105,416.068298 630.114807,427.321869 634.379700,447.571503 
	C635.092896,450.957703 634.624634,453.007263 631.452576,454.976807 
	C623.677795,459.804291 619.383423,467.154602 617.634460,476.077942 
	C616.215088,483.319458 616.748291,484.413971 624.473572,488.659149 
	C624.877075,483.597107 625.072327,478.685425 625.692749,473.828064 
	C627.531311,459.433350 641.696350,451.995575 654.756958,458.454712 
	C671.311584,466.641846 673.705139,488.486969 658.889526,499.618591 
	C654.549744,502.879272 652.947144,506.260376 653.333435,511.347900 
	C653.622681,515.156372 653.393005,519.007080 653.339600,522.838257 
	C653.201294,532.766663 648.027588,539.924011 638.467590,542.026123 
	C633.706665,543.072937 632.385498,545.264526 633.170471,549.621399 
	C633.405151,550.923950 633.300171,552.283875 633.451355,553.606018 
	C633.797791,556.634888 636.149170,560.779907 633.220520,562.390503 
	C629.568481,564.398804 624.735657,563.958374 620.677429,561.927856 
	C615.828674,559.501770 613.943359,554.677185 612.047424,550.073181 
	C608.724304,542.003296 610.804260,542.360596 600.706482,542.362122 
	C541.896240,542.370972 483.085846,542.437988 424.276001,542.291138 
	C419.325745,542.278748 416.542145,543.696716 415.108032,548.527283 
	C414.173676,551.674316 412.535919,554.689270 410.792664,557.502686 
	C407.635406,562.597961 399.188263,565.156067 393.895172,562.980164 
	C392.068359,562.229248 392.127075,560.924988 392.346558,559.306396 
	C392.860138,555.519165 393.161041,551.703308 393.661072,547.913940 
	C394.087372,544.683472 392.887543,543.125244 389.577698,542.404907 
	C378.079254,539.902588 372.665588,532.953613 372.665131,521.206543 
	C372.665070,519.207336 372.516998,517.192261 372.712921,515.211792 
	C373.404968,508.216766 372.011688,502.800751 365.582458,498.147125 
	C357.558044,492.338898 355.540710,481.035339 359.062195,471.845093 
	C362.672729,462.422485 371.757629,456.051270 381.820709,455.884613 
	C390.110107,455.747314 398.118195,462.893555 400.267792,472.164368 
	C401.516541,477.549896 400.615356,483.091522 401.501038,488.540283 
	C409.799957,485.529938 410.494904,484.231812 408.726013,476.228088 
	C406.623260,466.713837 402.310974,458.741577 393.415894,453.949738 
	C391.266388,452.791809 390.852142,451.306030 391.329041,449.015442 
	C392.251221,444.586212 393.697754,440.356354 395.657654,435.888702 
M622.951599,517.890869 
	C619.957520,519.109863 616.825317,519.280701 613.633057,519.278809 
	C586.974670,519.263306 560.316345,519.301880 533.657959,519.303101 
	C493.170593,519.304932 452.683228,519.312256 412.195923,519.266846 
	C401.329895,519.254639 396.034180,514.902649 394.548126,504.347229 
	C393.178772,494.620636 393.091034,484.790222 392.983368,474.969177 
	C392.885468,466.042236 384.143951,460.530243 376.035034,464.336853 
	C369.410400,467.446686 364.985596,472.463989 365.136047,480.239716 
	C365.281250,487.743652 368.838409,493.459259 375.787781,496.289642 
	C379.281250,497.712494 380.244324,499.790405 380.229004,503.082062 
	C380.202667,508.746246 380.306091,514.410889 380.293152,520.075256 
	C380.266968,531.535950 384.332855,535.592102 395.984741,535.595276 
	C418.311127,535.601257 440.637543,535.578613 462.963928,535.584717 
	C519.279785,535.600281 575.595581,535.629761 631.911438,535.641663 
	C641.249573,535.643616 646.030090,530.861023 646.076477,521.479919 
	C646.103638,515.993958 646.140198,510.504913 645.988708,505.022308 
	C645.868042,500.653717 646.839600,497.645874 651.633911,495.869202 
	C658.070740,493.483826 662.089844,486.247528 661.656189,479.967438 
	C661.146545,472.586578 655.712891,465.678070 648.827148,463.656311 
	C641.246582,461.430511 633.882935,465.871643 633.219177,473.765198 
	C632.468567,482.691711 632.586670,491.688934 632.227661,500.651459 
	C631.951172,507.552338 630.530640,513.943176 622.951599,517.890869 
M510.732971,438.502350 
	C510.726379,434.172607 510.588104,429.837860 510.752655,425.514618 
	C510.898285,421.688812 509.770386,420.000366 505.537384,420.696228 
	C501.787170,421.312653 497.907227,421.281738 494.084076,421.289001 
	C471.935730,421.331024 449.786743,421.205170 427.639008,421.326599 
	C412.851715,421.407654 399.499329,432.608154 396.542694,446.993347 
	C396.072723,449.279938 396.105408,451.127625 398.428925,452.581543 
	C406.802521,457.821411 410.417297,466.083954 412.474152,475.276794 
	C414.100647,482.546112 414.107513,482.574097 421.721680,481.652283 
	C437.160858,479.783173 452.660614,480.857483 468.129700,480.777802 
	C482.187012,480.705414 496.433777,479.294647 510.732849,485.503113 
	C510.732849,469.660828 510.732849,454.581085 510.732971,438.502350 
M607.777405,422.590759 
	C604.240601,421.480347 600.608765,421.243835 596.923096,421.266449 
	C587.765259,421.322632 578.605103,421.419220 569.449280,421.278351 
	C552.812012,421.022461 536.158936,422.082245 519.535767,420.671417 
	C515.717163,420.347290 515.258484,422.780762 515.268555,425.794128 
	C515.330139,444.276611 515.317810,462.759338 515.374146,481.241852 
	C515.378052,482.519165 515.073914,483.918030 516.241150,485.330688 
	C528.221863,479.938263 541.078552,480.766846 553.823730,480.720917 
	C567.310974,480.672302 580.798645,480.748138 594.285889,480.704193 
	C598.131165,480.691681 601.922485,480.995239 605.706909,481.674408 
	C612.375610,482.871246 612.491272,482.846436 613.541931,476.434021 
	C615.200134,466.313782 619.176147,457.631927 628.317627,452.141571 
	C630.971558,450.547607 630.092834,448.341949 629.536621,446.422577 
	C626.300964,435.257965 620.000000,426.730347 607.777405,422.590759 
M402.913483,497.551575 
	C399.070557,509.549194 402.090210,513.801025 414.404114,513.792175 
	C431.384094,513.779968 448.364075,513.799255 465.344055,513.793823 
	C477.496338,513.789856 489.649231,513.833374 501.800690,513.726929 
	C508.329712,513.669739 510.711426,511.082794 510.730927,504.495789 
	C510.735352,502.997772 510.682373,501.499695 510.676056,500.001556 
	C510.639343,491.260651 508.182068,488.193420 499.541199,486.410156 
	C496.948151,485.874969 494.287872,485.374481 491.656311,485.363556 
	C471.181000,485.278717 450.705139,485.290222 430.229584,485.335754 
	C424.539154,485.348389 418.969025,486.311920 413.582794,488.173523 
	C409.038208,489.744202 405.153442,492.157684 402.913483,497.551575 
M607.837341,486.575745 
	C605.541199,486.180969 603.246155,485.450836 600.948730,485.443390 
	C578.283813,485.370178 555.611572,485.084503 532.955994,485.558319 
	C520.008301,485.829132 516.824280,489.491150 515.859131,501.903717 
	C515.846252,502.069794 515.823181,502.235077 515.808533,502.401031 
	C515.091187,510.539917 518.010254,513.784790 526.233093,513.798523 
	C541.732849,513.824341 557.232788,513.780518 572.732605,513.775574 
	C587.065735,513.770996 601.398865,513.757996 615.731873,513.796387 
	C619.519714,513.806580 622.736572,512.849487 624.243042,509.014740 
	C626.756836,502.615753 623.794678,494.197693 617.827820,490.599274 
	C614.960510,488.870087 611.918030,487.524902 607.837341,486.575745 
M627.168457,557.573303 
	C628.664978,555.118225 627.853516,545.168396 625.802185,543.857971 
	C623.614380,542.460388 621.006409,542.897827 618.542419,543.134766 
	C617.494324,543.235596 616.742126,543.787659 616.554138,544.985657 
	C615.925354,548.992859 621.976318,556.791382 627.168457,557.573303 
M410.004883,545.899536 
	C409.970490,545.263794 410.182709,544.269165 409.862640,544.049255 
	C407.333130,542.311401 404.470306,542.861755 401.787781,543.435730 
	C399.346527,543.958130 399.454285,546.293945 399.247620,548.265076 
	C399.092957,549.740295 398.832764,551.204346 398.678528,552.679626 
	C398.497711,554.409058 397.526611,556.561829 399.801941,557.458740 
	C402.034973,558.338989 404.068207,557.285034 405.454803,555.432983 
	C407.446442,552.772888 408.809937,549.762451 410.004883,545.899536 
z"/>
<path fill="#000000" opacity="1.000000" stroke="none" 
	d="
M469.328735,201.601227 
	C468.876221,197.015060 465.981018,193.234299 466.977539,188.677872 
	C469.480682,188.766052 470.751404,190.449142 472.195129,191.701935 
	C478.171753,196.887985 485.161224,200.374207 492.136108,203.926193 
	C494.684814,205.224121 495.977570,204.237061 497.479279,202.219940 
	C504.264557,193.106201 510.120026,183.515167 513.103882,172.585953 
	C515.527588,172.500595 515.408508,174.251831 515.731018,175.353409 
	C518.729431,185.595337 524.716064,194.210251 530.465820,202.980881 
	C532.121460,205.506393 533.717163,205.694717 536.227783,204.322617 
	C544.698425,199.693237 552.811829,194.544235 560.029968,188.236740 
	C562.115417,189.551025 561.285400,191.137283 560.980225,192.465958 
	C557.708496,206.710953 554.327209,220.930847 551.087585,235.183014 
	C550.474365,237.880646 549.231873,239.168655 546.360107,239.160049 
	C524.725464,239.095215 503.090637,239.099670 481.455872,239.121155 
	C478.924744,239.123657 477.386871,238.136444 476.831543,235.586975 
	C474.392029,224.386703 471.908783,213.195969 469.328735,201.601227 
M517.499939,231.639786 
	C524.656006,231.635971 531.813904,231.535583 538.967346,231.670715 
	C542.339417,231.734406 544.168457,230.587662 544.845337,227.092133 
	C545.822754,222.044281 547.340454,217.103119 548.426270,212.072998 
	C548.784302,210.414383 549.438660,208.507172 547.758667,206.754211 
	C543.792297,207.602219 540.677795,210.245255 537.170654,212.024490 
	C530.321350,215.499283 530.441956,215.516830 525.799622,209.155243 
	C521.839478,203.728363 518.865112,197.561172 513.832886,192.484695 
	C509.326019,198.783203 504.977539,204.648254 500.872498,210.679047 
	C498.508820,214.151566 496.199524,215.043274 492.188751,212.865295 
	C488.210419,210.704910 484.602753,207.507980 479.585999,206.813889 
	C478.167664,212.581726 480.902496,217.531738 481.988037,222.562164 
	C484.098724,232.343109 482.032013,231.552414 493.034698,231.634964 
	C500.855988,231.693665 508.678131,231.641174 517.499939,231.639786 
z"/>
<path fill="#000000" opacity="1.000000" stroke="none" 
	d="
M806.010376,218.597092 
	C837.276428,218.679337 868.044556,218.761475 898.812683,218.843597 
	C897.438904,222.052155 895.491455,221.280106 893.818420,221.307800 
	C809.336914,222.706390 724.847778,222.157181 640.361084,222.269302 
	C639.361206,222.270630 638.361206,222.269211 637.361389,222.279984 
	C627.208191,222.389359 624.961731,224.546860 624.120056,234.866364 
	C623.766052,239.207275 623.311768,243.540024 622.892273,247.990616 
	C620.642212,247.374603 620.882935,246.034210 620.830139,244.951752 
	C620.708374,242.456116 620.696472,239.954727 620.660767,237.455368 
	C620.486145,225.234375 618.274231,222.958267 606.228943,222.221375 
	C601.499878,221.932083 596.789185,221.341797 591.760742,220.858856 
	C593.382263,218.323212 595.586121,218.936844 597.416870,218.897461 
	C602.424438,218.789734 607.406738,218.492477 612.340149,217.637680 
	C616.552429,216.907837 619.171143,214.660583 619.779175,210.140045 
	C620.357422,205.841034 620.909912,201.566895 620.903442,197.216537 
	C620.900879,195.486877 620.363586,193.547195 622.127258,191.828354 
	C623.765503,192.773193 623.353333,194.420731 623.287598,195.696350 
	C623.053589,200.236252 623.920105,204.667480 624.501892,209.112732 
	C625.279114,215.051102 627.599731,217.084915 633.604736,217.796906 
	C639.908813,218.544327 646.213257,218.225891 652.542725,218.200729 
	C697.704285,218.021179 742.866943,218.110947 788.029297,218.162064 
	C793.857117,218.168655 799.684753,218.445374 806.010376,218.597092 
z"/>
<path fill="#000000" opacity="1.000000" stroke="none" 
	d="
M303.976990,218.103241 
	C333.115204,218.276505 361.761200,218.451843 390.407288,218.615875 
	C392.406006,218.627335 394.415802,218.675858 396.402222,218.500427 
	C403.870361,217.840881 405.991333,215.973480 407.295288,208.673141 
	C408.015106,204.643051 408.440308,200.560333 409.858093,196.484360 
	C410.368408,200.622253 411.033203,204.748306 411.351013,208.900940 
	C411.774414,214.433472 414.727325,217.456055 420.071869,218.107315 
	C423.531677,218.528900 427.042816,218.511368 430.519928,218.816223 
	C432.384613,218.979721 434.547668,218.325333 436.398865,220.910919 
	C431.451965,221.387039 426.936859,221.905624 422.408112,222.238663 
	C414.750366,222.801819 411.774384,225.745621 411.194061,233.484207 
	C410.907684,237.302917 410.563751,241.117432 410.214569,244.930984 
	C410.188263,245.218216 409.910736,245.482422 409.460754,246.252014 
	C407.771820,243.013901 408.038300,239.760910 407.854370,236.687546 
	C407.121033,224.434937 405.087311,222.296906 392.656799,222.267410 
	C322.000397,222.099747 251.343704,222.030945 180.687286,221.858673 
	C164.528442,221.819275 148.370117,221.514481 132.211960,221.301575 
	C130.752380,221.282333 129.197525,221.627335 127.644783,220.426712 
	C129.971909,217.998505 132.945145,218.898514 135.526642,218.889755 
	C178.853851,218.742676 222.181503,218.729980 265.508820,218.605362 
	C278.167847,218.568954 290.826172,218.277267 303.976990,218.103241 
z"/>
<path fill="#000000" opacity="1.000000" stroke="none" 
	d="
M551.929260,288.825134 
	C564.927917,278.658447 584.791809,283.491272 591.428833,292.004547 
	C598.453857,301.015503 599.734253,313.123810 594.155212,322.897522 
	C588.133911,333.445801 576.773804,338.973114 565.112793,337.103760 
	C553.904480,335.306976 545.951782,329.482452 542.885315,318.315857 
	C539.748535,306.892975 542.450806,296.925110 551.929260,288.825134 
M559.435608,329.134155 
	C567.625977,335.642395 580.413391,332.650452 584.858276,325.937744 
	C590.877197,316.847931 589.934692,300.770752 582.544312,292.823547 
	C573.728394,283.343384 557.642883,285.872772 552.503601,297.547363 
	C547.928467,307.940369 550.547729,320.792786 559.435608,329.134155 
z"/>
<path fill="#000000" opacity="1.000000" stroke="none" 
	d="
M852.625244,324.349304 
	C853.019531,329.072388 852.624146,333.766968 858.965515,334.544159 
	C855.894165,336.570679 848.449707,336.928101 841.665039,335.413147 
	C848.561584,332.414551 846.861328,326.747131 846.910767,321.754639 
	C847.018066,310.936737 846.885132,300.116669 846.920105,289.297699 
	C846.926270,287.387695 846.341187,285.246582 847.664001,284.203247 
	C861.024658,296.849915 874.307434,309.422852 887.785278,322.180481 
	C889.462036,319.979797 888.737976,317.757416 888.754456,315.722229 
	C888.808167,309.065002 888.723511,302.406464 888.665833,295.748657 
	C888.607361,288.990631 888.024048,288.027344 882.506775,284.813904 
	C887.596619,283.537598 892.744690,283.942780 898.477783,284.766663 
	C892.455139,287.800629 893.370239,292.997742 893.366089,297.868042 
	C893.356506,309.020477 893.362915,320.172913 893.344177,331.325348 
	C893.341492,332.931854 893.690125,334.619507 892.114258,336.917450 
	C878.214172,325.395477 866.780823,311.676331 853.078918,298.678650 
	C851.715454,307.843109 852.404297,315.885651 852.625244,324.349304 
z"/>
<path fill="#000000" opacity="1.000000" stroke="none" 
	d="
M787.665833,329.327637 
	C779.437683,319.707764 778.395142,309.236115 783.265320,298.319244 
	C787.980042,287.750977 797.005249,283.046326 808.166016,283.151611 
	C819.735596,283.260773 829.281860,287.605408 834.180176,299.038727 
	C838.699707,309.588013 835.191223,323.826447 826.407654,330.833344 
	C816.428833,338.793671 801.361816,339.495605 791.394409,332.431610 
	C790.176208,331.568268 789.075012,330.539642 787.665833,329.327637 
M789.437378,313.810516 
	C790.360657,317.354645 791.303589,320.888519 793.303101,324.028564 
	C797.609680,330.791595 805.065369,333.984558 813.143677,332.508667 
	C820.192261,331.220947 824.671387,326.211853 826.611694,318.189423 
	C827.866028,313.003052 827.479797,307.917755 826.453491,302.873505 
	C824.481812,293.183411 816.182983,286.728271 806.721008,287.189819 
	C797.073853,287.660400 790.644348,293.824829 789.498047,303.972412 
	C789.163818,306.931549 789.393066,309.954376 789.437378,313.810516 
z"/>
<path fill="#000000" opacity="1.000000" stroke="none" 
	d="
M228.587814,335.404907 
	C232.098373,333.046692 232.978119,329.954529 232.894501,325.962555 
	C232.671524,315.316925 232.741776,304.662354 232.875412,294.013580 
	C232.925156,290.049683 232.579025,286.609924 227.928848,285.934998 
	C227.824966,284.063843 228.939362,283.946899 229.894699,283.941467 
	C236.549118,283.903656 243.229721,283.568634 249.850952,284.042084 
	C255.862381,284.471924 261.263763,286.570221 263.455475,293.138550 
	C265.621277,299.629181 263.574524,305.101898 258.817383,309.363831 
	C255.995850,311.891632 256.439667,313.534027 258.567200,315.886597 
	C260.348114,317.855957 261.924103,320.015839 263.529449,322.137787 
	C267.763184,327.733978 272.100769,333.184082 280.115509,334.426880 
	C275.165192,337.791809 266.862488,336.999542 262.884918,332.798126 
	C259.352753,329.067200 256.333191,324.850006 253.101913,320.835693 
	C251.747589,319.153198 250.530762,317.348511 249.072540,315.764038 
	C247.101486,313.622345 244.422119,313.929932 242.066315,314.619141 
	C239.843109,315.269562 240.392197,317.592529 240.331177,319.361908 
	C240.262405,321.356476 240.299835,323.355408 240.320419,325.352142 
	C240.364838,329.661041 240.776993,333.756104 246.413437,335.090820 
	C240.392975,336.648895 234.564056,336.581451 228.587814,335.404907 
M240.866592,289.494720 
	C239.730911,295.079193 240.544266,300.722504 240.368301,306.336029 
	C240.330353,307.546509 240.703247,308.576965 241.837601,309.283386 
	C245.290085,311.433533 252.677811,309.533112 254.628159,305.883545 
	C257.181152,301.106293 257.423035,296.282166 254.021225,291.849304 
	C250.728806,287.558960 246.234055,287.322021 240.866592,289.494720 
z"/>
<path fill="#000000" opacity="1.000000" stroke="none" 
	d="
M137.744659,287.074768 
	C137.740692,285.590546 137.630157,284.578888 137.752090,283.596039 
	C138.385574,278.489777 136.942627,274.743439 131.178955,273.920746 
	C131.539810,273.302277 131.677582,272.806671 131.860809,272.789246 
	C142.437744,271.784119 153.126465,270.541656 163.399704,274.116852 
	C173.551682,277.649872 176.437332,291.540588 169.278870,300.516602 
	C164.341019,306.708191 155.476898,309.519287 149.250107,306.622162 
	C151.257797,305.022552 153.653870,305.099121 155.745285,304.388092 
	C162.398849,302.126038 165.923416,295.529694 164.542923,287.906708 
	C163.257019,280.806030 157.829178,276.193970 151.092163,276.200256 
	C147.808380,276.203308 146.191864,277.313171 146.213394,280.828583 
	C146.307220,296.136047 146.339188,311.444824 146.239441,326.752075 
	C146.206848,331.753723 148.651733,334.251556 154.084900,334.394836 
	C153.839325,334.822876 153.593750,335.250885 153.348175,335.678894 
	C146.476990,335.678894 139.605804,335.678894 131.397034,335.678894 
	C139.908081,331.567627 137.565704,324.598419 137.689987,318.509186 
	C137.900436,308.196930 137.746246,297.877228 137.744659,287.074768 
z"/>
<path fill="#000000" opacity="1.000000" stroke="none" 
	d="
M650.619507,325.001099 
	C647.507812,314.480133 649.399658,304.093018 648.951233,293.828247 
	C648.785645,290.035370 649.182983,286.091553 643.331787,285.236847 
	C649.731384,283.484924 655.627991,283.881989 661.993591,284.632782 
	C655.644348,288.127899 657.385864,293.755859 657.327148,298.781586 
	C657.251221,305.274658 657.107178,311.778809 657.385132,318.261353 
	C657.801575,327.974365 663.548218,333.207855 672.694763,332.632568 
	C679.255859,332.219849 683.373291,328.784576 684.697205,322.018311 
	C686.729858,311.630035 685.452881,301.104614 685.569946,290.638763 
	C685.606506,287.367798 682.622620,286.637207 680.298035,284.903290 
	C685.443909,283.671112 690.427673,283.595703 695.778198,284.780670 
	C691.147949,287.320312 691.194092,291.347351 691.271545,295.552368 
	C691.406372,302.876404 691.506592,310.213440 691.227112,317.529938 
	C690.815186,328.311615 685.196289,334.918549 675.224365,336.933228 
	C664.534790,339.092896 655.018677,334.609344 650.619507,325.001099 
z"/>
<path fill="#000000" opacity="1.000000" stroke="none" 
	d="
M208.463638,313.259460 
	C204.965179,310.018158 201.025833,311.393127 197.318207,311.480347 
	C195.418396,311.525055 195.117340,313.258820 195.074020,314.820282 
	C195.000168,317.482147 194.734680,320.176666 195.037231,322.801270 
	C195.401611,325.962067 193.302505,330.220642 198.193329,331.714233 
	C204.314468,333.583557 210.721802,331.582886 213.490051,327.157532 
	C213.719879,326.790131 214.154694,326.550964 214.543747,326.208679 
	C216.603271,333.806000 214.663635,336.395660 207.159943,336.367096 
	C199.066727,336.336273 190.973282,336.360138 182.429047,335.803711 
	C188.074387,332.614716 186.860413,327.581635 186.874146,322.968628 
	C186.901901,313.645874 186.771515,304.321472 186.909760,295.000763 
	C186.974869,290.612732 186.889984,286.572174 181.448532,285.674866 
	C181.853088,284.039276 182.893112,283.961304 183.881409,283.949707 
	C192.701401,283.846100 201.522003,283.790253 210.341721,283.670013 
	C212.138489,283.645508 213.258636,284.225159 213.251724,286.170624 
	C213.243027,288.615082 213.462036,291.113861 211.334213,294.638092 
	C209.618637,287.514374 204.689758,288.377472 200.071198,288.197876 
	C196.494171,288.058716 194.708054,289.336151 194.978851,293.055145 
	C195.063217,294.213623 194.964661,295.384644 194.967545,296.549896 
	C194.994156,307.290833 198.414429,309.594025 208.876221,305.898590 
	C209.637482,305.629669 210.304810,305.009064 211.480652,305.546234 
	C212.548431,308.817902 210.977768,312.139801 211.208923,315.449951 
	C209.220169,315.981598 209.114502,314.561615 208.463638,313.259460 
z"/>
<path fill="#000000" opacity="1.000000" stroke="none" 
	d="
M527.683105,275.223938 
	C532.288452,278.719849 529.563599,282.637512 529.737854,286.329681 
	C527.568054,286.503571 527.404968,285.314697 527.218506,284.438110 
	C526.212769,279.709900 522.556213,278.661957 518.589966,278.375671 
	C514.861938,278.106567 511.615723,279.488617 509.751221,282.877991 
	C507.633026,286.728668 508.589783,290.507660 511.450836,293.451050 
	C514.803101,296.899719 518.571838,299.955475 522.262024,303.060272 
	C525.885193,306.108734 529.090637,309.513123 530.828247,313.942047 
	C535.358032,325.487793 528.229370,336.275757 515.501648,337.325928 
	C514.509033,337.407867 513.503845,337.371796 512.505676,337.346954 
	C500.615417,337.051056 497.979523,333.288269 501.542511,321.674347 
	C503.606812,321.736572 503.117950,323.420197 503.368317,324.595215 
	C504.345703,329.181946 507.091553,332.020752 511.755890,332.613373 
	C516.391541,333.202362 521.022827,332.899628 523.622314,328.273163 
	C526.046875,323.957977 525.502319,319.489471 522.384644,315.659485 
	C518.787231,311.240112 513.894714,308.203827 509.670746,304.445343 
	C504.672882,299.998230 501.587158,294.559021 502.146271,287.791931 
	C502.895172,278.727112 510.573883,273.267578 520.858215,274.089569 
	C523.007751,274.261414 525.132507,274.743683 527.683105,275.223938 
z"/>
<path fill="#000000" opacity="1.000000" stroke="none" 
	d="
M339.258789,320.053589 
	C339.255798,320.688904 339.255249,320.855469 339.255554,321.022003 
	C339.276459,332.081116 341.193115,333.545532 352.246613,331.862549 
	C355.824982,331.317688 356.743958,328.369720 358.625854,326.046448 
	C361.103943,332.693970 358.892517,336.349579 352.569275,336.361664 
	C344.411377,336.377258 336.253174,336.286316 328.095490,336.204468 
	C327.656403,336.200104 327.220703,335.856079 326.153656,335.402374 
	C332.313507,332.315826 331.572388,326.861725 331.540863,321.745239 
	C331.484467,312.603394 331.259430,303.462677 331.116730,294.321289 
	C331.022217,288.267487 331.031433,288.267334 325.395660,284.384186 
	C336.613892,284.384186 346.760956,284.384186 357.321960,284.384186 
	C358.164459,287.108063 357.539276,290.165924 356.549805,293.866211 
	C354.207611,291.710022 353.649872,288.667725 350.204437,288.253326 
	C340.330750,287.065674 339.245575,287.811554 339.275848,297.675781 
	C339.305328,307.281158 339.303467,307.230743 348.811218,306.886536 
	C351.156403,306.801636 353.322845,306.141052 355.614716,304.986298 
	C356.536499,308.941742 356.396667,312.251953 354.931213,316.607849 
	C351.695312,309.818970 346.187866,310.588745 341.395081,311.721283 
	C337.596130,312.618988 339.901001,316.878418 339.258789,320.053589 
z"/>
<path fill="#000000" opacity="1.000000" stroke="none" 
	d="
M376.012878,328.973785 
	C367.715088,319.577393 366.243896,307.416748 371.884583,296.697906 
	C376.934418,287.101776 388.084015,281.751770 399.791321,283.274078 
	C403.577271,283.766357 407.369415,284.217438 411.165741,284.621704 
	C415.050934,285.035400 416.772156,287.066345 416.197998,290.990509 
	C415.814331,293.612549 416.910858,296.526703 414.877502,299.118378 
	C414.202057,298.552460 413.666046,298.322815 413.506165,297.937225 
	C409.751312,288.882324 405.795013,286.664185 394.438416,287.306732 
	C385.952698,287.786865 380.167633,292.147614 377.937225,300.105316 
	C375.305847,309.493530 376.269012,318.333405 383.214996,325.698853 
	C389.339783,332.193573 396.925079,333.762512 405.621826,332.035614 
	C411.137604,330.940308 412.615997,326.519165 414.740784,322.238373 
	C417.563690,327.261475 415.937683,334.107178 411.439209,335.314056 
	C398.869232,338.686371 386.718903,338.585052 376.012878,328.973785 
z"/>
<path fill="#000000" opacity="1.000000" stroke="none" 
	d="
M309.750885,313.882324 
	C306.285736,310.053864 302.230194,311.286621 298.363037,311.909821 
	C296.365936,312.231689 296.009094,314.023834 296.006561,315.795776 
	C296.002472,318.623352 295.966614,321.451874 296.025940,324.278290 
	C296.122406,328.874359 295.147400,334.106323 303.028870,334.361420 
	C302.697968,334.793884 302.367065,335.226349 302.036163,335.658813 
	C295.896484,335.658813 289.756805,335.658813 282.484741,335.658813 
	C289.239960,332.276611 287.820648,326.696716 287.866974,321.642548 
	C287.952362,312.329285 287.887054,303.014587 287.886322,293.700500 
	C287.886017,289.893890 288.025055,286.004059 282.232727,286.033844 
	C283.710358,283.196045 285.716034,283.928833 287.341003,283.908661 
	C294.491699,283.819702 301.645813,283.937225 308.794739,283.789215 
	C315.533234,283.649719 315.739288,283.781281 315.016724,290.669861 
	C314.912964,291.659149 314.883026,292.647003 313.543030,293.805695 
	C310.869904,286.933533 305.091888,288.306488 299.768677,288.313782 
	C297.315674,288.317139 296.052399,289.405823 296.059052,291.907349 
	C296.062561,293.237335 295.978027,294.567322 295.962494,295.897675 
	C295.824829,307.681213 299.767242,310.221130 310.946838,305.581787 
	C311.363983,305.408691 311.883331,305.481934 312.549347,305.423279 
	C313.591736,308.912018 312.982300,312.292755 312.677765,315.561188 
	C310.780792,316.566650 310.552124,315.042969 309.750885,313.882324 
z"/>
<path fill="#000000" opacity="1.000000" stroke="none" 
	d="
M452.078979,336.326904 
	C446.304291,336.350861 440.935150,336.350861 435.565979,336.350861 
	C435.379456,335.939850 435.192902,335.528809 435.006378,335.117798 
	C440.317169,332.823120 439.761688,328.386871 439.751343,324.112000 
	C439.727173,314.114136 439.603516,304.112732 439.831299,294.119812 
	C439.927307,289.906219 438.748627,288.087891 434.209351,288.240021 
	C427.045319,288.480103 427.037018,288.232147 422.030243,293.436157 
	C420.762482,290.714447 421.725616,288.145294 422.084808,285.666260 
	C422.390350,283.557220 424.051666,283.529449 425.909668,283.554962 
	C437.403076,283.712555 448.912842,284.081818 460.386688,283.621429 
	C465.488617,283.416779 466.997009,284.976776 466.287781,289.634491 
	C466.099274,290.872467 466.741364,292.296661 464.953430,293.710144 
	C462.809967,286.956146 457.249969,288.478516 452.288177,288.315094 
	C449.420166,288.220673 448.178467,289.385590 447.865662,292.352386 
	C447.022095,300.352905 448.199707,308.319489 447.970306,316.309937 
	C447.851868,320.434601 447.084656,324.569489 447.974854,328.753662 
	C448.530823,331.366760 448.843018,333.542389 452.241119,333.846497 
	C454.445129,334.043732 455.273682,335.189606 452.078979,336.326904 
z"/>
<path fill="#000000" opacity="1.000000" stroke="none" 
	d="
M728.604736,289.654114 
	C726.655518,293.261414 727.416687,296.824677 727.362732,300.274811 
	C727.235168,308.437378 727.389526,316.604156 727.276794,324.767151 
	C727.211304,329.510620 727.191772,334.041107 733.507507,335.587830 
	C727.374634,335.587830 721.241821,335.587830 713.947327,335.587830 
	C721.414612,331.973236 719.531799,325.785736 719.614624,320.287445 
	C719.747559,311.458679 719.486450,302.622742 719.693237,293.796875 
	C719.788391,289.737061 718.490173,288.009857 714.262268,288.269684 
	C709.431580,288.566559 704.449524,288.076019 701.824280,294.593536 
	C699.919678,290.628601 700.922180,287.915375 701.393616,285.266785 
	C701.716919,283.450317 702.984680,283.175201 704.781860,283.347076 
	C716.248779,284.443848 727.751465,283.626465 739.238281,283.768555 
	C746.358337,283.856628 747.829773,286.083923 744.735596,293.951813 
	C740.893921,286.948822 735.049988,287.537964 728.604736,289.654114 
z"/>
<path fill="#000000" opacity="1.000000" stroke="none" 
	d="
M622.763855,286.049133 
	C619.408264,287.090088 618.298889,289.175018 618.318604,292.233612 
	C618.388489,303.059143 618.233826,313.887604 618.424255,324.710388 
	C618.530762,330.762085 619.939758,331.915100 625.987610,331.956055 
	C631.354431,331.992432 637.171509,332.905518 638.614014,324.489349 
	C642.090515,331.876984 639.684204,336.347137 633.429077,336.385132 
	C625.602356,336.432709 617.774414,336.395630 609.948120,336.300903 
	C608.589355,336.284454 606.935120,336.921265 605.616699,334.877960 
	C611.455383,332.860443 610.655945,327.943726 610.666931,323.377380 
	C610.690430,313.550873 610.597717,303.723358 610.716675,293.898193 
	C610.764771,289.923309 610.492676,286.399994 605.464294,285.990143 
	C606.053467,283.280518 607.827820,283.942993 609.135193,283.908325 
	C612.796936,283.811127 616.464539,283.778870 620.125244,283.882538 
	C621.362122,283.917603 623.491882,283.103851 622.763855,286.049133 
z"/>
<path fill="#000000" opacity="1.000000" stroke="none" 
	d="
M758.742798,298.072266 
	C758.185425,293.157043 760.980469,287.444336 753.753113,285.067078 
	C759.715637,283.333771 765.403503,283.811096 771.374695,284.708588 
	C765.978027,287.931427 766.346436,292.927734 766.608215,297.659241 
	C767.086975,306.312592 767.021301,314.959259 766.733398,323.604492 
	C766.494141,330.788879 766.897644,331.865448 773.413025,335.694305 
	C766.458008,335.694305 760.572754,335.694305 753.430054,335.694305 
	C760.584106,331.652893 758.557800,325.520599 758.685730,320.029877 
	C758.852356,312.876190 758.736877,305.715942 758.742798,298.072266 
z"/>
<path fill="#000000" opacity="1.000000" stroke="none" 
	d="
M375.259033,375.212708 
	C375.253113,379.179291 375.295746,382.677948 375.221222,386.174133 
	C375.190765,387.602386 375.542023,389.400085 373.602051,389.931580 
	C371.818695,390.420105 370.886566,388.986786 369.974915,387.819244 
	C367.329376,384.431091 364.734833,381.003082 361.120239,376.285492 
	C361.120239,380.823120 361.160675,383.887390 361.101532,386.949677 
	C361.075623,388.291107 360.925018,389.827789 359.137451,389.878143 
	C357.321350,389.929260 357.079468,388.348297 357.050446,387.041809 
	C356.943176,382.214539 356.947662,377.384369 356.951508,372.555298 
	C356.952576,371.209991 357.038116,369.747498 358.618256,369.272339 
	C360.142456,368.814026 361.123260,369.883636 361.961578,370.940521 
	C364.612762,374.282990 367.225067,377.656311 370.166901,381.420074 
	C371.993073,378.595612 371.474518,376.103790 371.510712,373.701874 
	C371.535980,372.025879 370.452240,369.438965 373.270111,369.430206 
	C375.940063,369.421936 375.033081,372.072388 375.259491,373.745361 
	C375.303772,374.072266 375.262360,374.410706 375.259033,375.212708 
z"/>
<path fill="#000000" opacity="1.000000" stroke="none" 
	d="
M501.504028,390.416382 
	C495.686432,390.913391 491.831207,388.770782 489.788818,383.595215 
	C488.019379,379.111206 488.732117,375.026855 492.226807,371.774780 
	C495.823944,368.427399 500.151886,367.718658 504.650116,369.854950 
	C509.261261,372.044830 511.093079,376.235382 510.609924,380.918396 
	C510.098511,385.875244 507.233551,389.477325 501.504028,390.416382 
M498.834656,386.705078 
	C499.826843,386.652191 500.890747,386.813293 501.798706,386.509064 
	C505.508453,385.265808 507.455292,381.192413 506.146484,377.672485 
	C504.809662,374.077179 500.965698,371.778107 497.969849,372.782043 
	C494.301392,374.011353 492.269470,378.343445 493.625275,382.203400 
	C494.382507,384.359253 495.817535,385.913330 498.834656,386.705078 
z"/>
<path fill="#000000" opacity="1.000000" stroke="none" 
	d="
M721.771362,390.299194 
	C716.288147,391.111359 714.382507,388.961151 714.832031,383.942261 
	C715.155884,380.327271 714.982971,376.656403 714.860046,373.016296 
	C714.758545,370.011292 716.176270,368.991974 719.026184,368.805054 
	C729.290527,368.131775 735.778870,375.636566 732.149780,384.148193 
	C730.283630,388.524994 726.651733,390.059937 721.771362,390.299194 
M722.277771,386.636993 
	C726.214417,386.194336 728.784363,384.351959 728.850769,380.069366 
	C728.909424,376.284393 727.000977,373.847137 723.468201,372.679077 
	C722.198547,372.259308 720.847839,372.081024 719.792603,373.230560 
	C718.050903,375.127899 719.312256,384.883026 722.277771,386.636993 
z"/>
<path fill="#000000" opacity="1.000000" stroke="none" 
	d="
M657.926025,390.449493 
	C650.852600,389.522827 647.230896,385.848785 647.174194,379.939087 
	C647.120056,374.307343 651.180054,369.510834 656.593994,368.810303 
	C662.186340,368.086700 666.907654,371.354309 668.545105,377.081543 
	C670.389648,383.533173 665.795410,389.524994 657.926025,390.449493 
M662.793518,374.776611 
	C660.755249,372.801514 658.511841,371.575134 655.635254,372.953522 
	C653.032349,374.200806 651.510071,376.263489 651.332581,379.167877 
	C651.141663,382.291840 652.513062,384.746216 655.235413,386.130463 
	C657.825256,387.447418 660.599670,387.101624 662.575134,384.941010 
	C665.210754,382.058350 665.462891,378.719543 662.793518,374.776611 
z"/>
<path fill="#000000" opacity="1.000000" stroke="none" 
	d="
M757.069336,373.111389 
	C760.969482,381.218414 757.810486,389.129456 750.567017,390.260529 
	C744.854736,391.152527 740.168335,388.759857 738.333496,384.014587 
	C736.418396,379.062042 737.987488,373.410370 742.051941,370.621033 
	C746.675659,367.447876 752.042542,368.231201 757.069336,373.111389 
M754.764160,378.823883 
	C754.037598,374.645264 751.735046,372.132904 747.317627,372.500732 
	C744.060486,372.771942 740.912964,376.898926 741.522583,380.113190 
	C742.214355,383.760345 743.940613,386.840393 748.315674,386.740875 
	C752.834167,386.638062 754.790405,383.942810 754.764160,378.823883 
z"/>
<path fill="#000000" opacity="1.000000" stroke="none" 
	d="
M541.715454,389.222290 
	C540.550659,389.643005 539.780396,390.010315 538.973267,390.130249 
	C530.769653,391.349518 529.935913,390.653076 529.524719,382.479645 
	C529.449829,380.991425 528.924194,379.453796 529.169434,378.036316 
	C529.706848,374.929413 527.083801,370.634003 531.852234,369.018585 
	C536.527649,367.434723 543.680969,370.324158 545.827148,374.240601 
	C548.743469,379.562439 547.489197,384.537689 541.715454,389.222290 
M533.262817,376.947784 
	C533.266052,378.434204 533.145264,379.933929 533.303162,381.403717 
	C533.511475,383.342621 532.311707,386.127930 535.548950,386.579132 
	C538.344727,386.968842 540.815247,385.978180 542.292358,383.401489 
	C544.624756,379.332886 542.667847,374.600677 538.145569,373.031555 
	C535.185791,372.004608 533.220093,372.412140 533.262817,376.947784 
z"/>
<path fill="#000000" opacity="1.000000" stroke="none" 
	d="
M431.873535,378.235107 
	C433.021881,382.235107 435.652557,385.320831 435.851318,389.631317 
	C430.993958,391.569366 431.166229,384.494934 426.306366,384.738983 
	C421.596161,384.975494 421.393433,390.650177 416.539490,390.026550 
	C417.168579,384.925720 419.588959,380.762756 421.594513,376.550201 
	C422.854309,373.904083 422.677338,369.123535 426.556000,369.431854 
	C429.884979,369.696472 429.892731,374.277313 431.360443,376.954071 
	C431.518829,377.242950 431.605560,377.571106 431.873535,378.235107 
z"/>
<path fill="#000000" opacity="1.000000" stroke="none" 
	d="
M480.275330,388.660767 
	C476.961090,384.123718 472.233398,383.928253 469.343658,388.041901 
	C468.406372,389.376099 467.641174,390.487640 465.558411,389.799011 
	C464.526123,387.243652 466.373444,385.160461 467.157562,382.979004 
	C468.557861,379.083313 470.195892,375.262329 471.935608,371.503143 
	C473.160828,368.855743 475.353210,367.597046 476.938721,370.869568 
	C479.807434,376.790710 482.084717,382.998413 484.542664,388.926666 
	C482.822510,390.777069 481.626434,390.272583 480.275330,388.660767 
z"/>
<path fill="#000000" opacity="1.000000" stroke="none" 
	d="
M450.513031,372.612366 
	C446.423218,374.261475 444.721558,377.069855 445.348022,381.040466 
	C445.836243,384.134918 447.822968,385.867157 450.897766,386.709259 
	C453.668549,387.468109 456.007812,383.920044 459.034668,386.136566 
	C458.721344,389.328979 455.615234,389.475037 453.934143,390.915802 
	C454.136780,396.867950 453.507904,397.500275 448.168121,396.325531 
	C450.222534,392.342346 448.155365,390.345093 444.837860,388.193695 
	C440.381989,385.304108 439.572357,378.437958 442.443604,373.803009 
	C445.185883,369.376221 451.404968,367.420380 456.050140,369.593475 
	C457.503235,370.273254 459.593811,370.931244 458.612122,373.079346 
	C457.765228,374.932434 456.073669,373.966248 454.702728,373.352234 
	C453.482300,372.805573 452.265869,372.240997 450.513031,372.612366 
z"/>
<path fill="#000000" opacity="1.000000" stroke="none" 
	d="
M309.995239,369.291382 
	C311.846832,370.093628 313.967896,370.572388 312.984558,372.786346 
	C312.111237,374.752563 310.441406,373.544678 309.123413,372.972412 
	C305.662903,371.469757 302.912598,372.684235 300.774139,375.385437 
	C298.825775,377.846558 298.814697,380.626160 300.445862,383.302521 
	C302.085510,385.992889 304.556305,387.055603 307.664062,386.597839 
	C308.870941,386.420074 309.915588,385.915314 310.341461,384.673340 
	C310.734497,383.527222 310.185516,382.740112 309.144318,382.313690 
	C307.791901,381.759888 305.863220,381.485687 306.704041,379.416443 
	C307.380096,377.752625 309.231110,378.090637 310.684296,378.143829 
	C312.385345,378.206116 314.309998,378.476959 314.218536,380.716827 
	C314.109406,383.389191 315.756531,386.612061 312.859192,388.597229 
	C309.503296,390.896576 305.594910,391.056488 301.887726,389.607544 
	C297.398224,387.852844 295.206940,384.280548 295.401001,379.434967 
	C295.599701,374.474060 297.845093,370.901184 302.756775,369.324371 
	C305.028717,368.595001 307.323792,368.564697 309.995239,369.291382 
z"/>
<path fill="#000000" opacity="1.000000" stroke="none" 
	d="
M702.845703,372.305481 
	C705.312073,378.132294 707.608032,383.622742 709.999695,389.342010 
	C704.638855,391.785950 704.878723,384.870148 700.391296,384.827576 
	C695.569092,384.781769 695.175171,390.313019 690.318970,390.108154 
	C692.136353,382.743866 694.988770,376.261169 698.500000,370.223267 
	C700.087097,367.493988 701.732544,370.158997 702.845703,372.305481 
z"/>
<path fill="#000000" opacity="1.000000" stroke="none" 
	d="
M554.760925,389.293213 
	C553.336548,383.496826 554.129089,378.010254 554.046082,372.548950 
	C554.009644,370.154297 555.265808,368.684265 557.727112,368.900848 
	C561.145203,369.201630 565.062500,367.493591 568.261108,370.677917 
	C566.096802,373.304810 563.772217,372.091797 561.765625,372.343658 
	C559.974609,372.568420 558.410400,372.868988 558.384888,375.116974 
	C558.357483,377.531494 560.103455,377.494415 561.824463,377.673401 
	C563.499023,377.847504 565.593689,377.004974 566.622864,379.332306 
	C565.786560,382.109375 563.424561,381.093994 561.643677,381.266602 
	C559.828369,381.442566 558.307800,381.673737 558.332397,383.999146 
	C558.356506,386.280518 559.844421,386.550201 561.666260,386.754822 
	C563.796204,386.994110 566.385193,385.771942 568.435181,389.176178 
	C563.804382,391.065918 559.439880,390.530945 554.760925,389.293213 
z"/>
<path fill="#000000" opacity="1.000000" stroke="none" 
	d="
M261.521484,374.404541 
	C262.773315,379.168091 266.346771,377.573242 269.049622,377.565674 
	C272.368195,377.556396 271.509064,374.711823 271.721558,372.695648 
	C271.856262,371.417328 271.554962,369.640778 273.341431,369.536987 
	C275.587555,369.406494 275.265656,371.419708 275.280945,372.812469 
	C275.343231,378.482361 275.306885,384.153351 275.306885,390.175903 
	C271.394592,389.534180 271.646698,387.451355 271.787689,385.801147 
	C272.135590,381.729736 269.872955,381.204590 266.561493,381.230804 
	C263.384460,381.255981 261.399231,381.932495 261.642761,385.667023 
	C261.750488,387.319305 262.284576,389.893036 259.568695,389.815918 
	C257.265442,389.750458 257.815552,387.358704 257.778961,385.823608 
	C257.679871,381.669006 257.694885,377.509735 257.764008,373.354004 
	C257.789825,371.801544 257.336182,369.884918 259.729431,369.345306 
	C262.123810,370.213135 261.073608,372.386078 261.521484,374.404541 
z"/>
<path fill="#000000" opacity="1.000000" stroke="none" 
	d="
M403.264862,376.445740 
	C404.030914,375.200897 405.138062,374.477814 404.826843,372.927979 
	C402.285889,371.068176 398.642151,373.849854 395.968475,371.271606 
	C397.193085,367.693970 400.155731,368.972565 402.296722,368.967590 
	C405.159882,368.960968 409.074219,367.323395 410.656403,370.250824 
	C412.288269,373.270111 408.439117,375.349823 406.991699,377.816559 
	C405.410736,380.510895 403.495880,383.009308 401.673859,385.670044 
	C404.584229,388.061707 408.674866,385.079803 411.723816,389.258118 
	C405.953430,391.125153 400.820435,390.184052 394.955566,389.941803 
	C396.764374,384.326508 400.509857,380.871918 403.264862,376.445740 
z"/>
<path fill="#000000" opacity="1.000000" stroke="none" 
	d="
M602.033142,389.674164 
	C588.725220,391.576233 588.725220,391.576233 588.675659,379.122162 
	C588.671631,378.122375 588.536804,377.101624 588.691711,376.126984 
	C589.059753,373.811340 587.358643,370.340607 590.361206,369.461884 
	C594.109070,368.365051 598.301880,367.986755 602.496155,370.150208 
	C600.449219,373.271851 597.888733,372.104492 595.780823,372.383972 
	C594.182922,372.595825 592.673523,372.745026 592.789551,374.844391 
	C592.885925,376.587708 593.847290,377.588654 595.667419,377.630249 
	C596.500244,377.649261 597.336304,377.638123 598.164734,377.711304 
	C599.449280,377.824707 601.163696,377.612061 601.108765,379.530762 
	C601.054932,381.410858 599.356323,381.167664 598.062500,381.261627 
	C597.398865,381.309753 596.730103,381.291046 596.063660,381.295837 
	C594.260193,381.308716 592.625244,381.620453 592.580383,383.899292 
	C592.528809,386.524139 594.406860,386.679810 596.357605,386.709686 
	C597.855408,386.732666 599.367188,386.696350 600.845459,386.892365 
	C602.226379,387.075439 602.859314,387.952087 602.033142,389.674164 
z"/>
<path fill="#000000" opacity="1.000000" stroke="none" 
	d="
M775.109985,389.541321 
	C771.791504,390.630951 768.841736,390.838959 766.024658,389.373993 
	C764.835632,388.755707 763.599854,387.807617 764.473755,386.238251 
	C765.170837,384.986511 766.395691,385.251129 767.549561,385.803009 
	C768.290405,386.157349 769.069275,386.544250 769.865784,386.646545 
	C771.393433,386.842743 772.992981,386.792969 773.530029,384.937622 
	C773.982544,383.374390 772.946899,382.405396 771.723633,381.757874 
	C770.553711,381.138611 769.258606,380.760803 768.059204,380.191223 
	C765.563660,379.006042 764.222290,377.087402 764.470093,374.231323 
	C764.700134,371.579590 766.247498,370.002319 768.673828,369.226013 
	C771.344604,368.371460 773.930115,368.472870 776.233704,370.281006 
	C776.936707,370.832794 777.272156,371.617218 776.821533,372.477386 
	C776.117920,373.820435 774.977844,373.693390 773.825012,373.185577 
	C772.066895,372.411224 769.957947,371.615204 769.124023,373.908478 
	C768.157837,376.565308 770.775513,377.044708 772.533630,377.834076 
	C779.316040,380.879272 780.219421,384.390533 775.109985,389.541321 
z"/>
<path fill="#000000" opacity="1.000000" stroke="none" 
	d="
M618.259949,385.465454 
	C618.917786,381.808197 616.144165,381.561798 614.083618,380.802460 
	C610.240906,379.386505 608.205078,377.009491 609.648499,372.817139 
	C610.819214,369.416809 615.707764,367.651703 619.334412,369.246674 
	C620.627380,369.815338 622.447144,370.398132 621.658569,372.386932 
	C621.001465,374.044403 619.549377,373.618225 618.266052,373.031494 
	C616.412109,372.183838 614.450439,371.927765 613.702454,374.190582 
	C613.001160,376.312103 615.131531,376.829895 616.565308,377.569519 
	C616.857178,377.720062 617.194214,377.780396 617.503845,377.899567 
	C620.658997,379.114349 623.198914,380.993439 622.980042,384.727753 
	C622.807068,387.677948 620.919128,389.688293 618.009644,390.189606 
	C614.543030,390.786957 611.100647,390.769897 608.983521,386.941437 
	C611.807312,383.406677 615.485474,388.948761 618.259949,385.465454 
z"/>
<path fill="#000000" opacity="1.000000" stroke="none" 
	d="
M339.167908,390.255554 
	C336.241791,390.191437 335.705078,388.615997 335.706116,386.556976 
	C335.708435,382.069305 335.768921,377.579010 335.634399,373.094940 
	C335.546204,370.156097 336.745483,368.600525 339.696411,368.881866 
	C342.796143,369.177338 346.281891,367.573029 349.109528,370.501099 
	C347.659485,373.215942 345.226654,372.086243 343.282623,372.328278 
	C341.386261,372.564362 339.457092,372.606171 339.442444,375.177704 
	C339.426483,377.981964 341.597839,377.578644 343.375854,377.708435 
	C344.949646,377.823303 346.699371,377.430634 347.959534,379.165161 
	C346.828827,382.028931 344.368896,381.100250 342.450256,381.257324 
	C340.475952,381.418976 339.287201,382.075500 339.398499,384.253906 
	C339.500244,386.245850 340.784821,386.694122 342.453918,386.695770 
	C343.118713,386.696411 343.806000,386.602264 344.443970,386.736664 
	C346.178955,387.102203 349.210205,385.739990 349.158783,388.679962 
	C349.115875,391.135345 346.288391,390.123108 344.624725,390.275635 
	C342.977539,390.426666 341.303802,390.287750 339.167908,390.255554 
z"/>
<path fill="#000000" opacity="1.000000" stroke="none" 
	d="
M675.067810,370.425415 
	C679.494934,367.969238 683.662659,368.476807 688.196350,369.815033 
	C686.869019,373.541504 684.343689,372.501892 682.210876,372.476532 
	C680.509094,372.456299 678.625244,372.290588 678.710815,374.785370 
	C678.779846,376.798157 680.100281,377.552124 682.041687,377.702911 
	C683.719910,377.833160 685.779846,377.073090 687.398926,380.237305 
	C680.700684,380.224701 677.083801,383.621002 676.645325,390.487823 
	C673.726746,383.752045 674.880310,377.255005 675.067810,370.425415 
z"/>
<path fill="#000000" opacity="1.000000" stroke="none" 
	d="
M629.910156,372.337311 
	C627.409668,371.932220 626.022827,371.109680 628.403076,369.301147 
	C630.292664,367.865479 640.822266,369.058136 643.493347,371.181427 
	C635.239563,372.668793 637.498352,378.792755 637.280518,383.916534 
	C637.190186,386.040131 637.931824,388.499695 635.041382,390.672424 
	C632.685120,385.917206 633.967468,381.451263 633.714233,377.202118 
	C633.571350,374.805756 633.812683,372.324768 629.910156,372.337311 
z"/>
<path fill="#000000" opacity="1.000000" stroke="none" 
	d="
M284.613770,369.995148 
	C287.652893,368.544800 288.095734,370.390106 288.129181,372.382690 
	C288.210266,377.209137 288.184143,382.038116 288.136810,386.865448 
	C288.123779,388.194275 288.015228,389.799011 286.271240,389.896881 
	C284.175140,390.014465 283.950653,388.212433 283.987701,386.738464 
	C284.125275,381.265747 283.433441,375.773163 284.613770,369.995148 
z"/>
<path fill="#000000" opacity="1.000000" stroke="none" 
	d="
M388.149109,377.137573 
	C388.140717,380.592651 388.175629,383.571747 388.103485,386.548218 
	C388.067932,388.015900 388.100098,389.814240 386.070801,389.927124 
	C383.962097,390.044403 383.869354,388.244507 383.848877,386.767151 
	C383.784637,382.135345 383.790558,377.501678 383.844849,372.869629 
	C383.861938,371.414795 383.788544,369.545532 385.821320,369.469727 
	C387.823944,369.395050 387.954651,371.199738 388.070496,372.691833 
	C388.172699,374.008789 388.128082,375.337158 388.149109,377.137573 
z"/>
<path fill="#000000" opacity="1.000000" stroke="none" 
	d="
M326.413025,379.701172 
	C326.511688,382.807526 326.700104,385.454773 326.661346,388.098724 
	C326.646790,389.092224 326.006226,389.990936 324.759644,389.989105 
	C323.811462,389.987701 323.070862,389.468781 323.014252,388.575897 
	C322.626526,382.460480 322.248627,376.334930 323.261566,370.245087 
	C323.329132,369.838776 324.243744,369.573334 325.046356,369.063171 
	C327.368164,372.412109 325.993469,375.965118 326.413025,379.701172 
z"/>
<path fill="#000000" opacity="1.000000" stroke="none" 
	d="
M473.317993,367.796906 
	C471.663147,368.000488 469.992554,368.494171 469.880951,366.524994 
	C469.783203,364.800537 471.163422,363.842499 472.850006,363.866089 
	C474.781616,363.893127 476.709686,364.177521 479.099396,364.391235 
	C478.817444,368.148590 476.547119,368.409119 473.317993,367.796906 
z"/>
<path fill="#000000" opacity="1.000000" stroke="none" 
	d="
M433.132202,457.945038 
	C430.999268,452.671356 425.762146,453.754944 421.702576,451.437836 
	C430.200745,450.439514 434.900635,445.832001 436.157715,436.923584 
	C436.814331,446.790100 442.573547,450.423004 452.137512,450.824707 
	C440.535065,456.394043 440.535065,456.394043 436.155731,465.550201 
	C433.995758,463.497498 434.526031,460.513550 433.132202,457.945038 
z"/>
<path fill="#000000" opacity="1.000000" stroke="none" 
	d="
M423.888794,467.146118 
	C425.305298,468.108398 426.660217,468.771088 424.880371,470.287262 
	C423.378815,471.566315 421.947388,472.927704 420.270355,474.447052 
	C418.650085,472.742645 416.985962,470.992157 415.274750,469.192078 
	C417.232941,467.712402 419.166473,466.251373 421.100037,464.790314 
	C422.157806,463.883453 422.250336,466.120117 423.888794,467.146118 
z"/>
<path fill="#000000" opacity="1.000000" stroke="none" 
	d="
M582.263794,453.252808 
	C578.698059,456.085968 579.801331,460.614929 576.929565,465.028168 
	C576.514099,456.015167 573.021118,450.611481 563.966553,449.121124 
	C572.832581,447.963257 576.313660,442.577026 577.570923,434.648773 
	C578.951843,442.932556 582.640381,448.368439 591.922302,448.468292 
	C588.737732,451.328003 584.919678,450.591583 582.263794,453.252808 
z"/>
<path fill="#000000" opacity="1.000000" stroke="none" 
	d="
M594.398438,467.134644 
	C597.537415,465.874481 598.120850,462.811981 599.989197,460.022827 
	C601.893799,463.879242 603.532776,467.136658 608.063232,468.294800 
	C604.846191,470.659485 601.687378,472.080017 599.900513,476.028168 
	C598.194946,471.755676 594.821594,470.392334 591.244873,468.385406 
	C592.607178,467.856445 593.350464,467.567841 594.398438,467.134644 
z"/>
<path fill="#000000" opacity="1.000000" stroke="none" 
	d="
M559.239746,450.928711 
	C557.119812,449.519989 556.536194,448.092896 558.492615,446.508301 
	C559.956421,445.322693 561.490540,445.823395 562.211060,447.214355 
	C563.532654,449.765533 561.667725,450.587128 559.239746,450.928711 
z"/>
</svg>